<?xml version="1.0" encoding="UTF-8"?>
<!-- Generator: Adobe Illustrator 27.1.1, SVG Export Plug-In . SVG Version: 6.00 Build 0)  -->
<svg version="1.1" id="LOGO_RSME" xmlns="http://www.w3.org/2000/svg" xmlns:xlink="http://www.w3.org/1999/xlink" x="0px" y="0px" viewBox="0 0 600 250" style="enable-background:new 0 0 600 250;" xml:space="preserve">
<style type="text/css">
	.st0{fill:#173A4C;}
	.st1{fill:#4082C4;}
</style>
<path class="st0" d="M548.3,152.5c0,2.6-0.8,4.7-2.3,6.2c-1.5,1.5-3.7,2.3-6.5,2.3c-2.8,0-4.9-0.8-6.5-2.3c-1.5-1.5-2.3-3.6-2.3-6.2  c0-2.7,0.8-4.7,2.3-6.3c1.5-1.5,3.7-2.3,6.5-2.3c2.8,0,5,0.8,6.5,2.3S548.3,149.9,548.3,152.5z M542,156.4c0.3-0.4,0.6-0.9,0.8-1.5  c0.2-0.6,0.2-1.4,0.2-2.4c0-0.9-0.1-1.7-0.3-2.4c-0.2-0.6-0.4-1.1-0.7-1.5c-0.3-0.4-0.7-0.7-1.1-0.8c-0.4-0.2-0.9-0.2-1.4-0.2  c-0.5,0-0.9,0.1-1.3,0.2c-0.4,0.1-0.8,0.4-1.1,0.8c-0.3,0.4-0.6,0.9-0.8,1.5c-0.2,0.6-0.3,1.5-0.3,2.4c0,0.9,0.1,1.6,0.2,2.3  c0.2,0.6,0.4,1.2,0.7,1.6c0.3,0.4,0.7,0.6,1.1,0.8s0.9,0.3,1.5,0.3c0.5,0,0.9-0.1,1.3-0.2S541.7,156.8,542,156.4z"/>
<path class="st0" d="M557.2,160.6H552v-22.2h5.2V160.6z"/>
<path class="st0" d="M572,158.9c-0.3,0.2-0.6,0.5-1,0.8c-0.4,0.3-0.8,0.5-1.2,0.7c-0.5,0.2-1,0.4-1.6,0.5c-0.5,0.1-1.1,0.2-1.8,0.2  c-1.5,0-2.8-0.5-3.8-1.4s-1.5-2.1-1.5-3.6c0-1.2,0.3-2.1,0.8-2.9s1.3-1.3,2.2-1.8c1-0.4,2.1-0.7,3.5-0.9c1.4-0.2,2.9-0.3,4.4-0.4  v-0.1c0-0.9-0.4-1.5-1.1-1.8c-0.7-0.3-1.8-0.5-3.2-0.5c-0.8,0-1.8,0.2-2.7,0.5c-1,0.3-1.7,0.5-2.1,0.7h-0.5v-3.9  c0.5-0.1,1.4-0.3,2.7-0.5s2.5-0.3,3.7-0.3c2.9,0,5,0.5,6.3,1.4c1.3,0.9,2,2.3,2,4.2v10.9H572V158.9z M572,156.4V153  c-0.7,0.1-1.4,0.1-2.3,0.2c-0.8,0.1-1.4,0.2-1.8,0.3c-0.5,0.2-0.9,0.4-1.2,0.7s-0.4,0.7-0.4,1.2c0,0.3,0,0.6,0.1,0.8  c0.1,0.2,0.2,0.4,0.4,0.6c0.2,0.2,0.5,0.3,0.8,0.4c0.3,0.1,0.8,0.1,1.4,0.1c0.5,0,1-0.1,1.6-0.3C571.1,157,571.5,156.7,572,156.4z"/>
<path class="st0" d="M527.4,160.6h-5.2v-8c0-0.6,0-1.3-0.1-1.9c-0.1-0.6-0.2-1.1-0.3-1.4c-0.2-0.4-0.5-0.6-0.8-0.8  c-0.4-0.2-0.9-0.2-1.5-0.2c-0.5,0-0.9,0.1-1.4,0.2s-1,0.4-1.6,0.7v11.4h-5.2v-16.1h5.2v1.8c0.9-0.7,1.8-1.3,2.6-1.6s1.8-0.6,2.8-0.6  c1.7,0,3.1,0.5,4.1,1.5s1.5,2.5,1.5,4.5V160.6z M525.7,137.4c-0.1,1.6-0.5,2.8-1.2,3.6c-0.7,0.8-1.7,1.2-2.9,1.2  c-0.4,0-0.9-0.1-1.3-0.3c-0.4-0.2-0.8-0.4-1.1-0.6c-0.3-0.2-0.6-0.4-1-0.6s-0.7-0.3-0.9-0.3c-0.5,0-0.8,0.2-0.9,0.5  s-0.2,0.7-0.3,1.3H513c0.1-1.4,0.5-2.6,1.2-3.4c0.7-0.9,1.7-1.3,2.9-1.3c0.5,0,0.9,0.1,1.3,0.2c0.4,0.2,0.8,0.3,1.1,0.5  c0.4,0.2,0.7,0.4,1,0.5c0.3,0.2,0.6,0.2,0.8,0.2c0.5,0,0.8-0.2,0.9-0.5s0.3-0.7,0.3-1.2H525.7z"/>
<path class="st0" d="M500.9,158.9c-0.3,0.2-0.6,0.5-1,0.8c-0.4,0.3-0.8,0.5-1.2,0.7c-0.5,0.2-1,0.4-1.6,0.5  c-0.5,0.1-1.1,0.2-1.8,0.2c-1.5,0-2.8-0.5-3.8-1.4s-1.5-2.1-1.5-3.6c0-1.2,0.3-2.1,0.8-2.9c0.5-0.7,1.3-1.3,2.2-1.8  c1-0.4,2.1-0.7,3.5-0.9c1.4-0.2,2.9-0.3,4.4-0.4v-0.1c0-0.9-0.4-1.5-1.1-1.8c-0.7-0.3-1.8-0.5-3.2-0.5c-0.8,0-1.8,0.2-2.7,0.5  c-1,0.3-1.7,0.5-2.1,0.7h-0.5v-3.9c0.5-0.1,1.4-0.3,2.7-0.5s2.5-0.3,3.7-0.3c2.9,0,5,0.5,6.3,1.4s2,2.3,2,4.2v10.9h-5.1V158.9z   M500.9,156.4V153c-0.7,0.1-1.4,0.1-2.3,0.2s-1.4,0.2-1.8,0.3c-0.5,0.2-0.9,0.4-1.2,0.7c-0.3,0.3-0.4,0.7-0.4,1.2  c0,0.3,0,0.6,0.1,0.8c0.1,0.2,0.2,0.4,0.4,0.6c0.2,0.2,0.5,0.3,0.8,0.4c0.3,0.1,0.8,0.1,1.4,0.1c0.5,0,1-0.1,1.6-0.3  C500,157,500.5,156.7,500.9,156.4z"/>
<path class="st0" d="M487.2,152.3c0,1.3-0.2,2.5-0.6,3.6c-0.4,1.1-0.9,2-1.6,2.7c-0.7,0.7-1.5,1.3-2.3,1.7c-0.9,0.4-1.8,0.6-2.8,0.6  c-0.9,0-1.7-0.1-2.3-0.3s-1.3-0.5-2-0.8v6.7h-5.2v-21.9h5.2v1.7c0.8-0.6,1.6-1.1,2.4-1.5s1.8-0.6,2.8-0.6c2,0,3.6,0.7,4.7,2.2  C486.6,147.7,487.2,149.8,487.2,152.3z M481.9,152.4c0-1.6-0.3-2.7-0.8-3.4c-0.5-0.7-1.4-1.1-2.5-1.1c-0.5,0-1,0.1-1.5,0.2  c-0.5,0.1-1,0.4-1.5,0.6v8.1c0.3,0.1,0.7,0.2,1.1,0.3c0.4,0,0.8,0.1,1.2,0.1c1.4,0,2.4-0.4,3-1.2C481.5,155.2,481.9,154,481.9,152.4  z"/>
<path class="st0" d="M467.3,155.5c0,1.7-0.7,3-2.2,4s-3.5,1.5-6.1,1.5c-1.4,0-2.7-0.1-3.9-0.4c-1.2-0.3-2.1-0.6-2.8-0.9v-4.2h0.5  c0.3,0.2,0.6,0.4,0.9,0.6c0.3,0.2,0.8,0.4,1.4,0.7c0.5,0.2,1.1,0.4,1.8,0.6s1.4,0.2,2.2,0.2c1,0,1.8-0.1,2.2-0.3  c0.5-0.2,0.7-0.6,0.7-1c0-0.4-0.1-0.7-0.4-0.9s-0.8-0.3-1.6-0.5c-0.4-0.1-0.9-0.2-1.6-0.3c-0.7-0.1-1.2-0.2-1.8-0.4  c-1.5-0.4-2.5-1-3.2-1.8c-0.7-0.8-1.1-1.8-1.1-3c0-1.5,0.7-2.8,2.2-3.9s3.5-1.5,6-1.5c1.2,0,2.4,0.1,3.5,0.4s2,0.5,2.6,0.8v4.1h-0.4  c-0.8-0.5-1.6-1-2.6-1.3c-1-0.3-2-0.5-3-0.5c-0.8,0-1.5,0.1-2.1,0.3c-0.6,0.2-0.8,0.6-0.8,1c0,0.4,0.1,0.7,0.4,0.9  c0.3,0.2,0.9,0.4,1.8,0.6c0.5,0.1,1.1,0.2,1.7,0.3c0.6,0.1,1.2,0.2,1.8,0.4c1.4,0.4,2.4,0.9,3,1.7  C467,153.4,467.3,154.3,467.3,155.5z"/>
<path class="st0" d="M448.8,160.6h-15.4v-21.3h15.4v4.1h-9.9v3.7h9.2v4.1h-9.2v5.3h9.9V160.6z"/>
<path class="st0" d="M413.2,158.9c-0.3,0.2-0.6,0.5-1,0.8c-0.4,0.3-0.8,0.5-1.2,0.7c-0.5,0.2-1,0.4-1.6,0.5  c-0.5,0.1-1.1,0.2-1.8,0.2c-1.5,0-2.8-0.5-3.8-1.4s-1.5-2.1-1.5-3.6c0-1.2,0.3-2.1,0.8-2.9s1.3-1.3,2.2-1.8c1-0.4,2.1-0.7,3.5-0.9  c1.4-0.2,2.9-0.3,4.4-0.4v-0.1c0-0.9-0.4-1.5-1.1-1.8c-0.7-0.3-1.8-0.5-3.2-0.5c-0.8,0-1.8,0.2-2.7,0.5c-1,0.3-1.7,0.5-2.1,0.7h-0.5  v-3.9c0.5-0.1,1.4-0.3,2.7-0.5s2.5-0.3,3.7-0.3c2.9,0,5,0.5,6.3,1.4c1.3,0.9,2,2.3,2,4.2v10.9h-5.1V158.9z M413.2,156.4V153  c-0.7,0.1-1.4,0.1-2.3,0.2c-0.8,0.1-1.4,0.2-1.8,0.3c-0.5,0.2-0.9,0.4-1.2,0.7s-0.4,0.7-0.4,1.2c0,0.3,0,0.6,0.1,0.8  c0.1,0.2,0.2,0.4,0.4,0.6c0.2,0.2,0.5,0.3,0.8,0.4c0.3,0.1,0.8,0.1,1.4,0.1c0.5,0,1-0.1,1.6-0.3C412.3,157,412.8,156.7,413.2,156.4z  "/>
<path class="st0" d="M394.6,161c-1.4,0-2.7-0.2-3.8-0.5c-1.2-0.3-2.2-0.8-3-1.5c-0.8-0.7-1.5-1.6-2-2.6s-0.7-2.3-0.7-3.7  c0-1.5,0.2-2.8,0.8-3.9s1.2-2,2.1-2.7c0.9-0.7,1.9-1.2,3-1.5s2.3-0.5,3.5-0.5c1.1,0,2.1,0.1,3,0.4c0.9,0.2,1.8,0.5,2.6,0.9v4.4h-0.7  c-0.2-0.2-0.4-0.4-0.7-0.6c-0.3-0.2-0.6-0.5-1-0.7c-0.4-0.2-0.8-0.4-1.3-0.5c-0.5-0.1-1-0.2-1.6-0.2c-1.4,0-2.4,0.4-3.2,1.3  c-0.7,0.9-1.1,2.1-1.1,3.6c0,1.5,0.4,2.7,1.1,3.5s1.8,1.2,3.2,1.2c0.6,0,1.2-0.1,1.7-0.2c0.5-0.1,0.9-0.3,1.3-0.5  c0.3-0.2,0.6-0.4,0.9-0.6c0.2-0.2,0.5-0.4,0.7-0.6h0.7v4.4c-0.8,0.4-1.7,0.7-2.5,0.9C396.6,160.9,395.7,161,394.6,161z"/>
<path class="st0" d="M381.5,142.2h-5.4v-3.9h5.4V142.2z M381.4,160.6h-5.2v-16.1h5.2V160.6z"/>
<path class="st0" d="M373.3,160.4c-0.6,0.1-1.1,0.3-1.8,0.3s-1.4,0.1-2.3,0.1c-2,0-3.5-0.4-4.5-1.2c-1-0.8-1.5-2.2-1.5-4.2V148h-2.1  v-3.5h2.1v-4.6h5.2v4.6h4.8v3.5h-4.8v5.7c0,0.6,0,1.1,0,1.5c0,0.4,0.1,0.8,0.2,1.1c0.1,0.3,0.4,0.6,0.7,0.8c0.3,0.2,0.8,0.3,1.5,0.3  c0.3,0,0.6-0.1,1-0.2c0.4-0.1,0.7-0.2,0.9-0.3h0.4V160.4z"/>
<path class="st0" d="M352.7,158.9c-0.3,0.2-0.6,0.5-1,0.8c-0.4,0.3-0.8,0.5-1.2,0.7c-0.5,0.2-1,0.4-1.6,0.5  c-0.5,0.1-1.1,0.2-1.8,0.2c-1.5,0-2.8-0.5-3.8-1.4s-1.5-2.1-1.5-3.6c0-1.2,0.3-2.1,0.8-2.9s1.3-1.3,2.2-1.8c1-0.4,2.1-0.7,3.5-0.9  c1.4-0.2,2.9-0.3,4.4-0.4v-0.1c0-0.9-0.4-1.5-1.1-1.8c-0.7-0.3-1.8-0.5-3.2-0.5c-0.8,0-1.8,0.2-2.7,0.5c-1,0.3-1.7,0.5-2.1,0.7h-0.5  v-3.9c0.5-0.1,1.4-0.3,2.7-0.5s2.5-0.3,3.7-0.3c2.9,0,5,0.5,6.3,1.4c1.3,0.9,2,2.3,2,4.2v10.9h-5.1V158.9z M355.4,136.6v0.3l-5,5.3  h-3.5l3.5-5.6H355.4z M352.7,156.4V153c-0.7,0.1-1.4,0.1-2.3,0.2c-0.8,0.1-1.4,0.2-1.8,0.3c-0.5,0.2-0.9,0.4-1.2,0.7  s-0.4,0.7-0.4,1.2c0,0.3,0,0.6,0.1,0.8c0.1,0.2,0.2,0.4,0.4,0.6c0.2,0.2,0.5,0.3,0.8,0.4c0.3,0.1,0.8,0.1,1.4,0.1  c0.5,0,1-0.1,1.6-0.3C351.8,157,352.2,156.7,352.7,156.4z"/>
<path class="st0" d="M327.8,149.2v11.4h-5.2v-8c0-0.8,0-1.4-0.1-2s-0.1-1-0.3-1.3c-0.2-0.3-0.4-0.6-0.8-0.8s-0.8-0.2-1.5-0.2  c-0.5,0-1,0.1-1.5,0.3c-0.5,0.2-0.9,0.4-1.3,0.7v11.4h-5.2v-16.1h5.2v1.8c0.9-0.7,1.7-1.2,2.5-1.6s1.7-0.6,2.7-0.6  c1.1,0,2,0.2,2.8,0.7c0.8,0.5,1.4,1.2,1.9,2.1c1-0.9,2-1.5,3-2c1-0.5,1.9-0.7,2.9-0.7c1.7,0,3,0.5,3.9,1.6s1.3,2.5,1.3,4.5v10.4  h-5.2v-8c0-0.8,0-1.5,0-2s-0.1-1-0.3-1.3c-0.2-0.3-0.4-0.6-0.8-0.8s-0.8-0.2-1.5-0.2c-0.4,0-0.8,0.1-1.3,0.2  C328.9,148.6,328.4,148.8,327.8,149.2z"/>
<path class="st0" d="M308.2,153.5h-11.8c0.1,1.3,0.6,2.2,1.4,2.9s2.2,1,3.9,1c1.1,0,2.1-0.2,3.2-0.6s1.8-0.8,2.4-1.3h0.6v4.1  c-1.2,0.5-2.3,0.8-3.3,1c-1,0.2-2.2,0.3-3.4,0.3c-3.2,0-5.7-0.7-7.4-2.2c-1.7-1.4-2.6-3.5-2.6-6.2c0-2.6,0.8-4.7,2.4-6.3  c1.6-1.5,3.9-2.3,6.7-2.3c2.6,0,4.6,0.7,5.9,2c1.3,1.3,2,3.2,2,5.7V153.5z M303.1,150.5c0-1.1-0.3-1.9-0.8-2.4  c-0.5-0.5-1.3-0.8-2.4-0.8c-1,0-1.8,0.3-2.4,0.8c-0.6,0.5-1,1.3-1.1,2.5H303.1z"/>
<path class="st0" d="M289.6,160.4c-0.6,0.1-1.1,0.3-1.8,0.3c-0.6,0.1-1.4,0.1-2.3,0.1c-2,0-3.5-0.4-4.5-1.2c-1-0.8-1.5-2.2-1.5-4.2  V148h-2.1v-3.5h2.1v-4.6h5.2v4.6h4.8v3.5h-4.8v5.7c0,0.6,0,1.1,0,1.5c0,0.4,0.1,0.8,0.2,1.1c0.1,0.3,0.4,0.6,0.7,0.8  c0.3,0.2,0.8,0.3,1.5,0.3c0.3,0,0.6-0.1,1-0.2c0.4-0.1,0.7-0.2,0.9-0.3h0.4V160.4z"/>
<path class="st0" d="M269.4,158.9c-0.3,0.2-0.6,0.5-1,0.8c-0.4,0.3-0.8,0.5-1.2,0.7c-0.5,0.2-1,0.4-1.6,0.5  c-0.5,0.1-1.1,0.2-1.8,0.2c-1.5,0-2.8-0.5-3.8-1.4s-1.5-2.1-1.5-3.6c0-1.2,0.3-2.1,0.8-2.9c0.5-0.7,1.3-1.3,2.2-1.8  c1-0.4,2.1-0.7,3.5-0.9c1.4-0.2,2.9-0.3,4.4-0.4v-0.1c0-0.9-0.4-1.5-1.1-1.8c-0.7-0.3-1.8-0.5-3.2-0.5c-0.8,0-1.8,0.2-2.7,0.5  c-1,0.3-1.7,0.5-2.1,0.7h-0.5v-3.9c0.5-0.1,1.4-0.3,2.7-0.5s2.5-0.3,3.7-0.3c2.9,0,5,0.5,6.3,1.4c1.3,0.9,2,2.3,2,4.2v10.9h-5.1  V158.9z M269.4,156.4V153c-0.7,0.1-1.4,0.1-2.3,0.2c-0.8,0.1-1.4,0.2-1.8,0.3c-0.5,0.2-0.9,0.4-1.2,0.7c-0.3,0.3-0.4,0.7-0.4,1.2  c0,0.3,0,0.6,0.1,0.8s0.2,0.4,0.4,0.6c0.2,0.2,0.5,0.3,0.8,0.4c0.3,0.1,0.8,0.1,1.4,0.1c0.5,0,1-0.1,1.6-0.3S269,156.7,269.4,156.4z  "/>
<path class="st0" d="M254.5,160.6h-5.5v-14.3l-3.9,9.2h-3.8l-3.9-9.2v14.3h-5.2v-21.3h6.4l4.8,10.7l4.8-10.7h6.4V160.6z"/>
<path class="st1" d="M577.2,126.1h-7.9v-2.6c-1.4,1.1-2.6,1.9-3.8,2.4c-1.2,0.5-2.5,0.8-4.1,0.8c-3,0-5.4-1.1-7.1-3.4  c-1.8-2.3-2.7-5.4-2.7-9.3c0-2.1,0.3-3.9,0.9-5.5c0.6-1.6,1.4-3,2.5-4.1c1-1.1,2.2-1.9,3.6-2.5c1.4-0.6,2.8-0.9,4.2-0.9  c1.5,0,2.7,0.2,3.6,0.5c0.9,0.3,1.9,0.7,2.9,1.2V92.1h7.9V126.1z M569.3,119.3v-12c-0.6-0.2-1.1-0.4-1.7-0.5  c-0.6-0.1-1.2-0.2-1.7-0.2c-2.1,0-3.6,0.6-4.6,1.9s-1.5,3.1-1.5,5.4c0,2.4,0.4,4.1,1.2,5.2c0.8,1.1,2.2,1.6,4,1.6  c0.7,0,1.5-0.1,2.3-0.4S568.7,119.8,569.3,119.3z"/>
<path class="st1" d="M538.2,123.5c-0.4,0.3-0.9,0.7-1.6,1.2c-0.6,0.5-1.2,0.8-1.8,1.1c-0.8,0.3-1.6,0.6-2.4,0.8  c-0.8,0.2-1.7,0.3-2.7,0.3c-2.3,0-4.3-0.7-5.8-2.2s-2.4-3.3-2.4-5.5c0-1.8,0.4-3.3,1.2-4.4c0.8-1.1,1.9-2,3.4-2.7  c1.5-0.7,3.3-1.1,5.4-1.4s4.4-0.5,6.7-0.6v-0.1c0-1.4-0.6-2.3-1.7-2.8c-1.1-0.5-2.7-0.8-4.9-0.8c-1.3,0-2.7,0.2-4.1,0.7  c-1.5,0.5-2.5,0.8-3.2,1.1h-0.7v-5.9c0.8-0.2,2.2-0.5,4-0.8c1.9-0.3,3.7-0.4,5.6-0.4c4.5,0,7.7,0.7,9.7,2.1s3,3.5,3,6.5v16.7h-7.8  V123.5z M538.2,119.7v-5.1c-1.1,0.1-2.2,0.2-3.4,0.4c-1.2,0.2-2.2,0.3-2.8,0.5c-0.8,0.2-1.4,0.6-1.8,1.1c-0.4,0.5-0.6,1.1-0.6,1.9  c0,0.5,0,0.9,0.1,1.2c0.1,0.3,0.3,0.6,0.7,0.9c0.3,0.3,0.7,0.5,1.2,0.6c0.5,0.1,1.2,0.2,2.2,0.2c0.8,0,1.6-0.2,2.4-0.5  C536.9,120.6,537.6,120.2,538.2,119.7z"/>
<path class="st1" d="M515.4,126.1h-7.9v-2.6c-1.4,1.1-2.6,1.9-3.8,2.4c-1.2,0.5-2.5,0.8-4.1,0.8c-3,0-5.4-1.1-7.1-3.4  c-1.8-2.3-2.7-5.4-2.7-9.3c0-2.1,0.3-3.9,0.9-5.5c0.6-1.6,1.4-3,2.5-4.1c1-1.1,2.2-1.9,3.6-2.5c1.4-0.6,2.8-0.9,4.2-0.9  c1.5,0,2.7,0.2,3.6,0.5c0.9,0.3,1.9,0.7,2.9,1.2V92.1h7.9V126.1z M507.5,119.3v-12c-0.6-0.2-1.1-0.4-1.7-0.5  c-0.6-0.1-1.2-0.2-1.7-0.2c-2.1,0-3.6,0.6-4.6,1.9s-1.5,3.1-1.5,5.4c0,2.4,0.4,4.1,1.2,5.2c0.8,1.1,2.2,1.6,4,1.6  c0.7,0,1.5-0.1,2.3-0.4S506.9,119.8,507.5,119.3z"/>
<path class="st1" d="M486,115.3h-18c0.1,1.9,0.8,3.4,2.2,4.4s3.3,1.5,5.9,1.5c1.7,0,3.3-0.3,4.8-0.9c1.6-0.6,2.8-1.2,3.7-1.9h0.9  v6.3c-1.8,0.7-3.4,1.2-5,1.5c-1.6,0.3-3.3,0.5-5.2,0.5c-4.9,0-8.7-1.1-11.3-3.3c-2.6-2.2-3.9-5.4-3.9-9.5c0-4,1.2-7.2,3.7-9.6  c2.5-2.4,5.9-3.5,10.2-3.5c4,0,7,1,9,3c2,2,3,4.9,3,8.7V115.3z M478.2,110.7c0-1.6-0.5-2.9-1.2-3.7c-0.8-0.8-2-1.2-3.6-1.2  c-1.5,0-2.8,0.4-3.7,1.2c-1,0.8-1.5,2-1.6,3.8H478.2z"/>
<path class="st1" d="M454.6,98.1h-8.3v-6h8.3V98.1z M454.4,126.1h-7.9v-24.5h7.9V126.1z"/>
<path class="st1" d="M432.9,126.7c-2.1,0-4.1-0.3-5.9-0.8c-1.8-0.5-3.3-1.3-4.6-2.4c-1.3-1.1-2.3-2.4-3-4c-0.7-1.6-1.1-3.5-1.1-5.7  c0-2.3,0.4-4.3,1.1-5.9s1.8-3,3.2-4.1c1.3-1,2.9-1.8,4.6-2.3c1.7-0.5,3.5-0.7,5.4-0.7c1.7,0,3.2,0.2,4.6,0.5c1.4,0.4,2.7,0.8,4,1.4  v6.7h-1.1c-0.3-0.3-0.7-0.6-1.1-0.9c-0.4-0.3-1-0.7-1.6-1c-0.6-0.3-1.2-0.6-2-0.8c-0.7-0.2-1.5-0.3-2.5-0.3c-2.1,0-3.7,0.7-4.8,2  s-1.7,3.1-1.7,5.4c0,2.4,0.6,4.1,1.7,5.4c1.2,1.2,2.8,1.8,4.9,1.8c1,0,1.9-0.1,2.7-0.3s1.4-0.5,2-0.8c0.5-0.3,0.9-0.6,1.3-0.9  c0.4-0.3,0.7-0.6,1-0.9h1.1v6.7c-1.2,0.6-2.5,1-3.9,1.4S434.6,126.7,432.9,126.7z"/>
<path class="st1" d="M414.5,113.8c0,4-1.2,7.2-3.5,9.5s-5.6,3.5-9.9,3.5c-4.2,0-7.5-1.2-9.9-3.5s-3.5-5.5-3.5-9.5  c0-4.1,1.2-7.2,3.5-9.6c2.4-2.3,5.7-3.5,9.9-3.5c4.3,0,7.6,1.2,9.9,3.5S414.5,109.8,414.5,113.8z M404.9,119.8  c0.5-0.6,0.9-1.4,1.1-2.3c0.3-0.9,0.4-2.1,0.4-3.7c0-1.4-0.1-2.6-0.4-3.6c-0.3-1-0.6-1.8-1.1-2.3c-0.5-0.6-1-1-1.7-1.3  c-0.7-0.2-1.4-0.4-2.1-0.4c-0.8,0-1.4,0.1-2,0.3c-0.6,0.2-1.2,0.6-1.7,1.2c-0.5,0.6-0.9,1.3-1.1,2.3c-0.3,1-0.4,2.2-0.4,3.7  c0,1.3,0.1,2.5,0.4,3.5c0.2,1,0.6,1.8,1.1,2.4c0.5,0.6,1,1,1.7,1.2c0.6,0.3,1.4,0.4,2.2,0.4c0.7,0,1.4-0.1,2-0.4  S404.4,120.4,404.9,119.8z"/>
<path class="st1" d="M384.3,115.9c0,3.2-1.4,5.8-4.1,7.8c-2.7,2-6.4,3-11.1,3c-2.7,0-5-0.2-7-0.7c-2-0.5-3.9-1.1-5.6-1.8v-7.8h0.9  c1.7,1.4,3.7,2.4,5.8,3.2c2.1,0.7,4.2,1.1,6.2,1.1c0.5,0,1.2,0,2-0.1c0.8-0.1,1.5-0.2,2-0.4c0.6-0.3,1.2-0.6,1.6-1s0.6-1,0.6-1.7  c0-0.7-0.3-1.3-0.9-1.8c-0.6-0.5-1.5-0.9-2.7-1.2c-1.2-0.3-2.5-0.6-3.9-0.8c-1.4-0.3-2.6-0.6-3.8-1c-2.7-0.9-4.7-2.1-5.9-3.6  c-1.2-1.5-1.8-3.4-1.8-5.7c0-3,1.4-5.5,4.1-7.4c2.7-1.9,6.2-2.9,10.5-2.9c2.1,0,4.3,0.2,6.3,0.6c2.1,0.4,3.9,0.9,5.4,1.6v7.5h-0.9  c-1.3-1-2.9-1.9-4.8-2.6c-1.9-0.7-3.8-1.1-5.8-1.1c-0.7,0-1.4,0-2.1,0.1c-0.7,0.1-1.4,0.3-2,0.5c-0.6,0.2-1.1,0.5-1.5,1  c-0.4,0.4-0.6,0.9-0.6,1.5c0,0.9,0.3,1.5,1,2c0.7,0.5,1.9,0.9,3.7,1.3c1.2,0.2,2.3,0.5,3.4,0.7c1.1,0.2,2.3,0.6,3.5,1  c2.5,0.8,4.3,1.9,5.5,3.3C383.7,111.8,384.3,113.6,384.3,115.9z"/>
<path class="st1" d="M335,126.1h-7.9v-34h7.9V126.1z"/>
<path class="st1" d="M311.9,123.5c-0.4,0.3-0.9,0.7-1.6,1.2c-0.6,0.5-1.2,0.8-1.8,1.1c-0.8,0.3-1.6,0.6-2.4,0.8  c-0.8,0.2-1.7,0.3-2.7,0.3c-2.3,0-4.3-0.7-5.8-2.2s-2.4-3.3-2.4-5.5c0-1.8,0.4-3.3,1.2-4.4c0.8-1.1,1.9-2,3.4-2.7  c1.5-0.7,3.3-1.1,5.4-1.4s4.4-0.5,6.7-0.6v-0.1c0-1.4-0.6-2.3-1.7-2.8c-1.1-0.5-2.7-0.8-4.9-0.8c-1.3,0-2.7,0.2-4.1,0.7  c-1.5,0.5-2.5,0.8-3.2,1.1h-0.7v-5.9c0.8-0.2,2.2-0.5,4-0.8c1.9-0.3,3.7-0.4,5.6-0.4c4.5,0,7.7,0.7,9.7,2.1s3,3.5,3,6.5v16.7h-7.8  V123.5z M311.9,119.7v-5.1c-1.1,0.1-2.2,0.2-3.4,0.4c-1.2,0.2-2.2,0.3-2.8,0.5c-0.8,0.2-1.4,0.6-1.8,1.1c-0.4,0.5-0.6,1.1-0.6,1.9  c0,0.5,0,0.9,0.1,1.2c0.1,0.3,0.3,0.6,0.7,0.9c0.3,0.3,0.7,0.5,1.2,0.6c0.5,0.1,1.2,0.2,2.2,0.2c0.8,0,1.6-0.2,2.4-0.5  C310.6,120.6,311.3,120.2,311.9,119.7z"/>
<path class="st1" d="M291.3,115.3h-18c0.1,1.9,0.8,3.4,2.2,4.4s3.3,1.5,5.9,1.5c1.7,0,3.3-0.3,4.8-0.9c1.6-0.6,2.8-1.2,3.7-1.9h0.9  v6.3c-1.8,0.7-3.4,1.2-5,1.5c-1.6,0.3-3.3,0.5-5.2,0.5c-4.9,0-8.7-1.1-11.3-3.3c-2.6-2.2-3.9-5.4-3.9-9.5c0-4,1.2-7.2,3.7-9.6  c2.5-2.4,5.9-3.5,10.2-3.5c4,0,7,1,9,3c2,2,3,4.9,3,8.7V115.3z M283.5,110.7c0-1.6-0.5-2.9-1.2-3.7c-0.8-0.8-2-1.2-3.6-1.2  c-1.5,0-2.8,0.4-3.7,1.2c-1,0.8-1.5,2-1.6,3.8H283.5z"/>
<path class="st1" d="M264.2,126.1H254l-8.8-11.9h-3.9v11.9h-8.3V93.6H247c1.9,0,3.6,0.1,5,0.3c1.4,0.2,2.7,0.7,3.9,1.4  c1.2,0.7,2.2,1.7,2.9,2.8s1.1,2.6,1.1,4.4c0,2.4-0.6,4.4-1.7,5.9c-1.1,1.5-2.7,2.8-4.8,3.8L264.2,126.1z M251.1,103.5  c0-0.8-0.2-1.5-0.5-2.1c-0.3-0.6-0.9-1-1.7-1.4c-0.6-0.2-1.2-0.4-2-0.4c-0.8-0.1-1.6-0.1-2.6-0.1h-3v8.8h2.6c1.3,0,2.5-0.1,3.4-0.2  c0.9-0.1,1.7-0.4,2.3-0.9c0.6-0.5,1-1,1.3-1.5C251,105.2,251.1,104.5,251.1,103.5z"/>
<g id="Escudo_00000026882484494893593650000000899746246155035822_">
	<path id="laurel_der_00000129892904273213335810000010873197107682073503_" class="st1" d="M152.4,54l-0.5,0.4l0.4,1   c0.3,0.7,0.8,1.7,1.1,2.3c0.6,0.9,4.2,5.8,5.6,7.5l0.6,0.8l-0.8-0.6c-0.4-0.3-2-1-3.5-1.6c-2.5-0.9-3.1-1-6.4-1.2l-3.6-0.2l2,3   c1.1,1.7,2.6,3.7,3.4,4.4c0.8,0.7,1.4,1.5,1.4,1.6c0,0.5-0.8,0.5-2.4,0l-1.7-0.6l-1.6,0.7c-0.9,0.4-2.1,0.7-2.7,0.8   c-1.6,0.2-2.2,0.9-2,1.9c0.2,0.8,1.5,1.8,2.3,1.8c0.6,0,1.3-0.8,1.9-2.1c0.5-1.1,1.5-2,2.2-2c0.6,0,1.2,0.8,1,1.4   c-0.2,0.5,0.4,1.1,4.2,4.1c2.4,1.9,4.8,3.9,5.2,4.4s1.4,1.1,2,1.4c1.6,0.6,1.8,1,1,2.1s-0.8,1.9,0,2.6c1.2,1,2.3,0.7,3-0.9   c0.5-1.3,1.4-1.4,2.8-0.5c1.1,0.7,1.3,1.3,0.6,2c-0.4,0.4-0.4,0.7,0.1,1.6c0.3,0.6,1.2,3.1,2,5.5c0.9,2.8,1.7,4.8,2.4,5.7   c0.5,0.8,1.3,2.3,1.7,3.4c0.9,2.5,1.7,3.4,3.9,4.7c1.8,1,3.7,2.7,3.4,3c-0.4,0.3-2.1,0.2-4-0.5c-2.6-0.8-3.8-1.6-4.4-2.7   c-0.5-0.9-1.6-1.8-2.8-2.1c-0.9-0.3-2.2,1-2.2,2c0,0.5,0.3,1.1,0.7,1.5c0.6,0.6,0.8,0.7,2.3,0.6c1.2-0.1,1.9,0,2.8,0.3   c2.5,1,5.7,2.2,6.9,2.5c1.3,0.3,1.5,0.5,0.7,1c-0.4,0.2-0.5,0.9-0.5,3c0.1,5.5,0.9,11.1,2.3,14.3c0.7,1.6,0.6,2.4-0.2,2.4   c-0.6,0-2.7-3.6-3.3-5.7c-0.3-1-1.1-2.5-1.8-3.5c-0.7-0.9-1.6-2.3-2-3.1c-0.8-1.5-1.1-1.8-2-1.8c-1,0-1.8,0.8-1.8,1.8   c0,1.1,0.8,1.9,2.6,2.5c1.9,0.6,3.1,1.8,3.7,3.9c0.3,1,1.2,3,2.1,4.5c0.9,1.5,1.6,3.1,1.6,3.5s-0.3,1.3-0.6,2.1   c-0.4,0.7-0.6,1.5-0.6,1.7c0,0.9-0.7,2.3-1.1,2.3c-0.6,0-1.6-1.4-2.3-3.1c-0.5-1.3-0.5-1.7-0.1-2.7c0.4-1.1,0.3-1.3-0.2-2.2   c-0.9-1.4-1.5-1.6-2.9-1.1c-1,0.4-2.1,1.6-2.1,2.4c0,0.1,0.8,1,1.7,1.9c1.8,1.8,3.6,4.4,4.9,7.2c0.9,2,1.4,4.1,0.9,4.3   c-0.4,0.2-1.9-1.1-2.7-2.3c-0.3-0.5-0.8-0.8-1.2-0.8c-0.6,0-0.6,0.3-0.8,3.8l-0.2,3.8l-2.1,3.8c-1.2,2.1-2.1,4.1-2.2,4.4   c-0.1,0.4-0.3,0.6-0.4,0.6c-0.7,0-1.1-9-0.5-10.9c0.3-1.1,0.2-1.6-0.5-2.3c-0.8-0.7-2-0.5-3.2,0.5c-1.4,1.1-1.4,1.8,0,3.2   c0.6,0.6,1.2,1.3,1.4,1.5s0.4,1.6,0.5,3.2l0.1,2.7l-1,0.5c-0.7,0.3-1.1,0.8-1.4,1.6c-0.6,1.5-1.8,2.8-3.6,3.9   c-1.3,0.8-2.7,2.2-5.4,5.2c-1.5,1.7-1.9,1.2-0.8-1c0.5-1,1.2-2.2,1.6-2.7c0.8-1.1,0.9-2.6,0.2-3.1c-1.1-0.8-3.8-0.2-4.2,1   c-0.1,0.4,0,1.2,0.4,2.1c0.6,1.3,0.6,1.5,0,3.6c-0.3,1.2-0.6,2.8-0.7,3.5c-0.1,0.7-0.4,1.5-0.6,1.8c-0.6,0.7-2.5,1.5-5,2   c-2.6,0.5-7.1,2.1-9,3.1c-0.8,0.4-2.2,1.1-3.1,1.4c-1.9,0.8-7.9,5.7-10.4,8.5c-0.8,0.9-1.9,1.9-2.3,2.1l-0.8,0.4l0.2-1   c0.4-1.6,4.1-8.4,5-9c1.9-1.4,2.3-1.7,2.7-2.5c0.6-1,0.6-2.7,0.1-3.3c-0.3-0.4-0.7-0.4-1.5-0.3c-2.4,0.4-4.1,2.1-3.7,3.7   c0.6,2.3,0.3,3.4-1.3,6.2c-2.5,4.3-5.9,9.6-6.4,9.8c-0.4,0.2-0.6,0.3-2.4-0.8v5.5c1.4,0.3,3.2,1.3,6.2,3.3   c6.6,4.4,13.4,11.3,13.4,13.7c0,0.9,0.8,1.2,2.8,1.2c1.7,0,3.8-0.7,4.7-1.4c0.9-0.8,0.9-3.5,0-4.9c-1.2-1.8-2.4-2.7-7.2-5.3   c-2.5-1.4-5.5-3.2-6.6-3.9c-2.1-1.5-4.8-4.1-4.3-4.1c0.9,0,3.1,1.2,4.9,2.7c2.3,1.9,4.8,3.2,8.5,4.8c1.4,0.6,3.1,1.5,3.8,2.1   c1.2,1,1.2,1,2.9,0.8c2.1-0.2,3.2-0.7,3.2-1.6c0-0.9-1.4-1.5-3-1.5c-0.7,0-1.9,0-2.5,0.1c-1.9,0-7.1-2.2-10.3-4.5   c-2.1-1.5-1.5-1.8,1.4-0.7c0.9,0.3,2.4,0.7,3.3,0.9c0.9,0.2,2.4,0.6,3.5,1.1c1.2,0.5,2.4,0.8,3.3,0.8c1.7,0,7.1-0.8,8.5-1.3   c1.1-0.4,4.4-2.1,5.7-2.9c0.5-0.3,3.1-1.6,5.8-2.8l5-2.2h4.2c3.9,0,4.2,0,5.3,0.6c1.5,0.8,2.3,0.8,3.5-0.2c1.7-1.3,1.7-2.9,0.1-3.5   c-0.7-0.3-1.1-0.2-2.2,0.2c-0.7,0.3-1.6,0.8-2,1c-0.6,0.4-1.3,0.5-6.1,0.5c-5.2,0.1-6.9-0.1-6.9-0.7c0-0.4,1.9-1.1,5.1-1.7   c6.4-1.3,7.6-1.8,11.1-4.4c11.5-8.7,11-8.3,11.4-9.5c0.5-1.7,1.5-2,6.2-2.2c3.4-0.1,3.6-0.1,3.6,0.3c0,0.6,1.6,1.3,3,1.3   c2.2,0,4.4-1.9,3.6-3c-0.2-0.2-0.7-0.6-1.2-0.8c-0.8-0.3-1-0.3-2.5,0.2c-1.3,0.5-2.4,0.6-4.6,0.7c-3.4,0.1-4.1-0.1-3.4-1   c1.1-1.4,1.9-3,2.3-4.4c0.5-1.9,2.8-7.9,3.6-9.1c0.3-0.5,1.1-1.2,1.7-1.6c0.6-0.4,2.3-1.6,3.7-2.7c3.2-2.4,4.9-3.2,6.8-3   c4.7,0.5,4.9,0.5,6,0.1c2-0.8,2.3-2.5,0.7-3.7c-1.4-1.1-2.7-1-4.4,0.3c-0.7,0.6-1.6,1.4-1.8,1.7c-0.4,0.5-0.9,0.7-2.7,0.8   c-1.2,0.1-2.4,0.1-2.5,0c-0.2-0.1-0.1-0.6,0.2-1.2c0.3-0.5,0.7-2.1,1-3.5s0.7-3.3,0.9-4.3c0.3-1.7,0.4-4.9,0.2-8   c-0.2-2.8,1.2-3.8,6.5-4.7c1.7-0.3,2.6-0.6,3.1-1c1-0.9,1-1.9-0.1-2.6c-2-1.3-3.7-0.8-4.4,1.2c-0.5,1.3-0.5,1.3-4,2.5   c-3.1,1-3.1,1-2.9-3c0.1-1.9,0.3-4,0.4-4.7c0.2-1.3-0.1-3.1-1.1-5.5c-0.3-0.8-0.7-1.7-0.8-2.1s-0.3-1-0.5-1.4l-0.3-0.7l-1.2,0.9   c-1.2,0.9-2,0.9-1.3-0.1c1-1.4,4.4-3.3,8.3-4.4c2.2-0.7,2.6-1,2.7-2.4c0-1.4-1.1-2.3-2.5-2c-1.1,0.3-2.3,1.7-2.3,2.7   c0,0.5-0.3,0.9-1.4,1.5c-1.5,0.8-4.1,1.9-4.2,1.8c0,0,0.2-1.3,0.5-2.9c0.5-2.3,0.6-3.6,0.5-7.2c-0.2-5.3-0.8-7.6-3.9-13.5l-2.1-4.1   l-1.1,2c-1.1,2-1.9,2.6-2.5,1.9c-0.2-0.2-0.2-0.6-0.1-1c0.3-1,1.7-4.2,2.1-4.5c0.2-0.2,0.5-0.8,0.8-1.4s1.1-1.8,1.8-2.7   c1.5-1.8,1.6-2.9,0.5-3.8c-2.3-1.8-4.5,0.7-3.1,3.4c0.4,0.8,0.4,1-0.8,3.8c-0.7,1.6-1.5,3.1-1.7,3.3c-0.6,0.4-1.1,0.1-1.7-1   c-0.7-1.5-4.2-6.9-5.3-8.1c-0.5-0.6-2.7-2.5-4.8-4.2s-4.7-4-5.8-5.3s-2.4-2.6-3-3c-1.3-0.9-1.9-2-2.2-4c-0.1-0.8-0.4-2.4-0.7-3.5   c-0.4-1.6-0.4-2.2-0.1-3.6c0.3-1.5,0.3-1.8-0.1-2.5c-0.6-0.9-1.7-1.6-2.6-1.6c-1.8,0-2,2.2-0.4,4c1.5,1.6,1.8,2.4,2.2,4.7   c0.7,4,0.5,4.1-2.2,2.2c-4.5-3.1-10.1-5.4-14.7-6.1L152.4,54z M171,52.3c-0.7,0.5-1.3,0.5-2.1-0.1s-0.8-1.2,0-1.5   c0.9-0.4,1.2-0.3,1.9,0.2C171.6,51.5,171.6,51.8,171,52.3 M198.8,76.2c0.5-0.7,0.7-0.7,1.6-0.1c0.6,0.4,0.7,0.6,0.5,1.1   c-0.4,1.1-2,1.2-2.3,0.1C198.6,77,198.6,76.5,198.8,76.2 M212.1,108c0.5-0.5,1.9-0.5,2.1,0c0.1,0.2,0.1,0.6,0.1,0.9   c-0.1,0.5-0.3,0.6-1.2,0.6s-1.1-0.1-1.2-0.6C211.7,108.6,211.9,108.2,212.1,108 M217.6,129.4c0.1-0.7,0.8-0.9,1.6-0.5   s0.7,1.2-0.1,1.4C218.1,130.4,217.5,130.1,217.6,129.4 M217.3,151.6c0.9-0.7,1.7-0.7,2.2,0s-0.1,1.5-1.1,1.7   C216.6,153.6,216,152.6,217.3,151.6 M203.3,176.4c1-0.4,2-0.2,2,0.5c0,0.5-0.9,1-1.9,1C202.5,177.9,202.5,176.8,203.3,176.4    M177.2,196.2c0.1-0.3,0.6-0.6,1-0.8c0.8-0.3,0.9-0.3,1.3,0c0.7,0.6-0.2,1.9-1.3,1.9C177.3,197.3,177,197,177.2,196.2 M142.8,210.4   c0.4-0.5,1.7-0.7,2.1-0.3c0.4,0.5-0.5,1.3-1.3,1.3C142.6,211.4,142.3,211,142.8,210.4 M126.5,180.8c0.3-0.3,0.8-0.6,1.1-0.6   c0.5,0,0.6,0.2,0.6,0.9c0,1-1,2.1-1.7,1.9C125.9,182.7,125.8,181.5,126.5,180.8 M137.7,218.3c1.5-0.9,2.4-1.1,2.9-0.6   c1,1-0.8,2.5-3.1,2.5C135.5,220.2,135.6,219.6,137.7,218.3 M123.1,203.9c3.6,2.5,6.8,4.5,10.4,6.7c4.2,2.5,5.2,3.2,5.8,4.1   c0.7,1.1,0.6,1.4-1.4,2.2c-2.3,1-3.1,0.9-4.4-0.7c-1.7-2-5.9-6-8.5-8.3c-2.4-2-3.9-3.8-4.4-5C120.4,202.1,120.8,202.3,123.1,203.9    M175.3,136.6c0,0.3-0.2,0.5-0.4,0.5c-0.5,0-0.8-0.5-0.6-1C174.6,135.4,175.3,135.8,175.3,136.6 M170.2,109.7   c-0.2,0.2-0.4,0.2-0.5-0.1c-0.1-0.2-0.1-0.4,0.1-0.6c0.2-0.2,0.4-0.2,0.5,0C170.5,109.4,170.4,109.6,170.2,109.7 M144,74.4   c-0.6,0.5-1.6,0.1-1.5-0.6s1.4-0.9,1.7-0.2C144.3,73.8,144.2,74.2,144,74.4 M193.6,95.1c-1.2,2.9-1.5,4.2-1.5,6.3   c0,1.9-0.3,2.9-1,2.9c-0.2,0-0.3-1.6-0.3-3.9c0-3.2-0.2-4.5-0.8-7c-0.4-1.7-0.9-4.2-1.1-5.5c-0.3-2.4-0.8-3.8-1.3-3.8   c-0.4,0-0.3,1.6,0.2,4.2s0.6,4.5,0.2,4.5c-0.5,0-2.6-2-3.3-3.2c-0.5-0.9-0.7-1.8-0.8-3.5c0-1.3-0.3-3.2-0.6-4.3   c-0.3-1.1-0.4-2.5-0.3-3.1c0.1-0.6,0-2-0.2-3.2s-0.3-2.1-0.2-2.2c0.2-0.2,3.9,3,5.3,4.5c1.8,1.9,3.7,5.2,4.7,8.2   c0.5,1.3,1.1,3.1,1.5,3.9C194.8,91.6,194.8,92.3,193.6,95.1 M176.5,89.4c0.1,0.3,0.5,1.1,0.9,1.8c0.4,1,1.2,1.8,2.4,2.7   c1.6,1.2,1.7,1.4,1.2,1.6c-0.8,0.3-2.1,0-3.7-0.9c-1.3-0.7-1.4-0.8-2.5-5.1c-0.4-1.4-0.9-3-1.2-3.5c-0.4-0.7-0.5-1.8-0.4-4.4   l0.1-3.5l3,2.6c2.8,2.5,3,2.6,3.8,4.8c1.1,2.9,1.4,3.4,4,5.7c1.2,1.1,2.6,2.4,3,2.9c0.9,1,2.3,3.8,2.6,5.5c0.4,1.9-1.4,4-1.9,2.2   c-0.7-2.3-1.9-3.9-6.8-8.2c-1.3-1.1-2.7-2.6-3.2-3.4c-0.5-0.7-1-1.3-1.2-1.3C176.4,89,176.3,89.2,176.5,89.4 M191.3,142.9   c-0.2-4.4-0.2-4.8,0.5-6.3c0.4-0.8,1.1-2.6,1.6-4s1.7-3.8,2.6-5.4c0.9-1.6,2-3.2,2.4-3.6l0.8-0.8l0.8,1.5c0.9,1.6,2.1,4.8,2.7,6.9   c0.5,1.8,0.3,7.9-0.3,8.4c-0.5,0.5-5.5,3.5-5.5,3.3c0-0.1,0.2-0.5,0.5-1c0.6-1.1,1.5-4.7,1.5-6c0-0.5-0.2-1.1-0.5-1.3   c-0.6-0.4-1,0.3-1.3,2.6c-0.1,0.9-0.6,2.7-1,3.8c-0.7,1.9-5.4,11.3-5.8,11.6c-0.5,0.4-0.4-0.5,0.3-2.7   C191.5,147.7,191.5,147.5,191.3,142.9 M191.7,122.7c-0.3-0.6-1.1-1.6-1.7-2.2c-1.5-1.4-2.3-3.9-1.8-5.8c0.2-0.7,0.6-2.3,0.9-3.5   c1.1-4.2,1.3-5,1.5-5.3c0.1-0.2,0.4-0.3,0.5-0.3c1,0,4.2,3.2,5,5.1c0.2,0.5,0.6,1.8,0.8,2.8s0.7,2.7,1.1,3.8   c0.4,1.1,0.8,2.5,0.9,3.1c0.1,1,0,1.2-0.7,1.3c-0.8,0.1-2,1.6-2.4,2.8c-0.3,1-0.8,0.3-1.1-1.5c-0.1-0.9-0.6-2.5-1.1-3.5   c-0.6-1.3-0.9-2.2-0.9-3.3c0-1.2-0.1-1.5-0.5-1.5c-0.9,0-0.9,1.6,0,4.1C193.5,122.3,193.1,125.6,191.7,122.7 M203.8,102.5   c-0.4,1.5-0.6,3.9-0.6,6.5c0,2.9-0.2,4.5-0.6,5.6c-0.7,2.1-1.5,3.7-1.8,3.7c-0.1,0-0.6-1.2-1.1-2.7c-0.7-2.1-0.8-3.3-0.8-5.7   c0-4.2-0.3-8.8-0.7-8.8c-0.2,0-0.3,1.4-0.3,3c0,3.2-0.2,4.4-0.8,4.4c-0.2,0-1-0.7-1.8-1.5l-1.4-1.5l0.3-5.1   c0.4-5.8,0.4-5.9,3.4-9.4c1.1-1.3,2.1-2.3,2.4-2.3c0.3,0,0.6,0.3,0.8,0.6C204.4,97.2,204.7,98.6,203.8,102.5 M208.3,125.1   c-0.2,0.5-0.5,2.9-0.7,5.2c-0.4,4-0.5,4.4-1.5,6.1c-0.6,1-1.2,1.8-1.3,1.7s-0.2-1.4-0.1-3c0.1-4.5-0.4-7-1.8-8.9   c-2.7-3.7-2.5-3.3-1.9-4.2c0.5-0.7,2.2-2.9,3.9-4.8c0.7-0.8,1-0.7,1.7,0.5C208.1,120.6,208.8,123.6,208.3,125.1 M193.2,163.4   c-0.6-0.2-0.6-0.5,0.3-2.6c0.5-1.2,1.3-2.3,2.4-3.4c3.8-3.7,5.2-6.1,5.2-8.9c0-1.5-0.5-1.1-0.9,0.7c-0.7,3-1.4,4.1-4.1,6.5   c-1.4,1.3-2.7,2.4-2.8,2.4c-0.1,0.1-0.7,1-1.4,2.1c-1.6,2.7-2.2,2.7-1.9-0.3c0.1-1.4,0.4-2.6,0.7-3.1s1-2.1,1.6-3.7   c0.6-1.6,1.6-3.8,2.4-5c1.1-1.9,1.8-2.5,4.7-4.8c1.9-1.5,4.1-3.1,5-3.6s2-1.3,2.6-1.8c1.7-1.4,2.3-1,2.6,2.1   c0.1,1.3,0.1,2.6-0.1,3.2c-0.2,0.5-0.5,2.1-0.7,3.4c-0.6,4.7-2.3,7.7-6.7,11.6C198.8,161.5,194.6,163.8,193.2,163.4 M186.4,179   l-1.4,1.1l-5.6,0.1l1.3-0.4c3.5-1.1,4.5-1.8,6.6-3.8c2.6-2.6,3.7-4.7,3.4-6.6c-0.2-1.2-0.1-1.3,1.1-2.5c0.7-0.7,1.9-1.5,2.7-1.8   c2.5-1,3.2-0.6,2.6,1.5c-1.2,4-2.3,6.7-2.9,7.4c-1,1.1-3.3,2.8-4.9,3.5C188.4,177.7,187.1,178.4,186.4,179 M186.9,174.3   c-0.8,0.9-4.4,3.4-4.9,3.4s-0.1-0.7,0.6-1.3c1-0.7,4.3-4.6,4.9-5.8c0.4-0.8,1.3-1.1,1.3-0.5C188.9,170.8,187.7,173.3,186.9,174.3    M158.3,196.5c0-0.3,2.1-0.3,3.4,0.1c1.3,0.3,1.4,0.7,0.2,0.7S158.3,196.8,158.3,196.5 M132.1,202.2c0.8,0,1.7-0.2,2.1-0.3   c0.5-0.2,2.3-0.3,5.2-0.3c4.1,0,4.7-0.1,7.2-0.8c1.5-0.4,2.7-0.9,2.7-1c0.1-0.4-1.5-0.4-3.5,0c-1.7,0.3-5,0.7-11.4,1   c-3.4,0.2-1.7-0.5,2.8-1.1c3.8-0.6,4.9-0.9,9-2.8c2.9-1.3,3.8-1.3,7.1-0.1c1.4,0.5,3.1,1.2,3.8,1.4c0.8,0.3,1.2,0.6,1.1,0.9   c-0.1,0.5-6.7,4.1-8.8,4.9c-0.7,0.3-2.5,0.7-3.9,1c-2.6,0.6-2.6,0.6-3.8,0.1c-0.7-0.3-3.2-0.9-5.5-1.4   C131,202.5,130.1,202.2,132.1,202.2 M152.2,180.8c-1.8,2.8-4,5-7.2,6.9c-2.3,1.4-3.6,1.9-4.8,1.9c-0.5,0-1.4,0.2-1.9,0.4   c-1.2,0.5-7.5,2.2-7.7,2.1c-0.1-0.1,0.3-0.3,0.9-0.5c0.5-0.2,1.3-0.7,1.8-1c1.4-1.1,5.2-3.5,7-4.5c1.1-0.6,1.8-1.2,1.9-1.5   c0.1-0.7-0.6-0.8-1.2-0.2c-0.2,0.2-2,1.3-4,2.3c-2,1.1-4.5,2.5-5.5,3.1c-3.4,2.1-4.6,2.3-2.8,0.6c2.3-2.3,7.4-5.8,9.9-6.9   c2.6-1.1,9.8-3.4,10.8-3.4c0.3,0,1.2-0.3,2-0.7s1.6-0.8,1.9-0.9C153.7,178.3,153.5,178.8,152.2,180.8 M151.4,187   c0.2,0.4,0.4,0.8,0.4,0.9c0,0.4-1,0.7-2.8,0.9c-1.5,0.2-1.7,0.1-1.7-0.3c0-0.7,4-4.2,4.2-3.7c0.1,0.2,0,0.7-0.2,1   C151.2,186.2,151.2,186.5,151.4,187 M153.1,190.8c-3.7,3-8,5.6-11.6,6.9c-1.6,0.6-2.5,0.7-8,0.9c-3.4,0.2-6.4,0.2-6.6,0.2   c-0.7-0.2,2.7-1.5,4.6-1.8c1.7-0.2,3.3-0.6,6.3-1.3c1.9-0.5,4.4-1.5,4.2-1.8c-0.3-0.3-1.1-0.3-2.7,0.1c-0.8,0.2-2.5,0.6-3.9,0.8   c-1.3,0.2-4,0.9-5.9,1.4c-1.9,0.6-3.5,1-3.6,0.9s0.3-0.6,0.8-1.1c0.7-0.8,1.6-1.3,3.5-2c1.4-0.5,2.9-1.2,3.4-1.4   c1.5-0.8,3.5-1.2,7.4-1.5c2.1-0.1,5.1-0.5,6.6-0.8c1.7-0.3,3.3-0.5,4.1-0.4s1.5,0,1.9-0.2C155,188.9,154.7,189.5,153.1,190.8    M155.1,166.5c0.6-0.5,1.2-0.4,1.4,0.2c0.3,0.7,0,1-1,1C154.6,167.7,154.4,167,155.1,166.5 M157.6,189.6c3.5-2.7,5.1-3.7,7-4.3   c0.8-0.3,2.2-1,3.1-1.6c0.9-0.6,2.1-1.3,2.8-1.6c1.1-0.5,4.1-0.8,4.6-0.4c0.1,0.1,2.3,0.2,4.9,0.2c3.9,0.1,4.8,0.2,5.3,0.5   c0.6,0.5,0.4,0.6-6.1,5.2c-4.6,3.3-7.3,4.1-18.6,5.9c-5.7,0.9-8.2,1.1-8.2,0.6c0-0.1,0.9-0.3,2-0.5c1.4-0.2,4.3-1.2,9.8-3.4   c4.3-1.7,8.7-3.4,9.9-3.8c1.2-0.4,2.2-0.8,2.2-0.9c0-0.5-1.9-0.1-4.2,0.7c-1.3,0.5-3.7,1.2-5.2,1.6c-1.5,0.4-4.2,1.3-6,1.9   c-1.7,0.7-3.9,1.4-4.6,1.6l-1.5,0.4L157.6,189.6z M167,152.3c-0.3-0.1-0.5-0.3-0.5-0.7c0-0.7,1-1,1.3-0.4   C168.1,151.8,167.7,152.4,167,152.3 M168.6,170.6c0,3-0.3,3.8-2.2,7c-2.9,4.8-3.8,5.8-6.6,7.6c-3.4,2.1-4.3,2.2-3.6,0.2   c0.4-1,1.4-2.4,2.1-2.8c1.1-0.7,5.2-7.2,5.5-8.7c0.3-1.6-0.6-1-1.6,1.1c-0.5,1-1.2,2.2-1.6,2.7c-0.4,0.5-1.3,1.5-2,2.4   c-1.1,1.4-2.5,2.3-2.9,2c-0.6-0.5,0.2-4.6,1.4-7.3c1-2.4,2.2-3.7,5.5-6.4c3.8-3.1,3.9-3.1,4.8-2.4   C168.2,166.8,168.6,168,168.6,170.6 M170.9,172.1c2.4-4.3,2.2-4.2,9.5-8c1.6-0.9,3.8-2.2,4.8-3s2-1.7,2.2-1.9   c0.3-0.4,0.4,0,0.4,2.4c0,4.8-0.9,7.2-4.3,11.7c-2.6,3.3-2.7,3.4-5.2,4.8c-2,1.1-3.7,1.7-6.1,2c-0.7,0.1-1.8,0.4-2.4,0.7   c-1.1,0.5-1.7,0.5-1.2-0.1c0.2-0.2,1.2-1.3,2.3-2.4c1.1-1.1,2.7-2.9,3.6-3.9c0.9-1,2.3-2.6,3-3.4c0.7-0.8,1.3-1.6,1.2-1.8   c-0.2-0.5-1.4,0.6-3.8,3.4c-2.2,2.5-5.5,5.4-6.2,5.4c-0.3,0-0.5,0-0.5-0.1C168.2,177.4,169.7,174.3,170.9,172.1 M181.8,161.7   l-1.2,0.9c-3.2,2.4-4.5,1.9-2.8-1.2c0.7-1.2,0.8-1.6,0.6-2.2c-0.6-1.6-1.2-1.1-2.4,1.8c-0.7,1.6-1.2,3.2-1.2,3.6   c0,0.5-0.3,0.9-0.8,1.2c-1.1,0.6-1.5,0.3-1.5-1.4c0-2.2,0.5-3.9,2-6.6c0.7-1.4,1.7-3.4,2.1-4.6c0.4-1.2,0.9-2.3,1-2.4   c0.4-0.4,2.6,1.3,3.4,2.7c0.8,1.2,0.8,1.6,0.8,4.8L181.8,161.7L181.8,161.7z M185.6,134.9c1.1-1,1.6-1,2.6-0.2   c1.4,1.1,1.7,2.9,1.7,8.6c0,3.8-0.1,5.2-0.5,6.1c-0.3,0.7-1,2.6-1.5,4.2c-1.3,3.9-1.4,4-2.9,5.4c-1.1,0.9-1.2,1-1.1,0.5   c0.1-0.4,0.2-1,0.2-1.4s0.2-1.4,0.4-2.1c0.6-1.8,1.4-6,1.4-7.7c0-0.8,0.2-2.2,0.5-3.2c0.5-1.9,0.4-3.5-0.3-3.5   c-0.5,0-0.8,0.9-1.1,4.2c-0.4,3.7-0.7,5.1-1.2,5.2c-1.1,0.3-2.4-5.4-1.8-7.4c0.2-0.6,0.4-1.6,0.4-2   C182.4,140.6,184.8,135.6,185.6,134.9 M182.4,120.8c0-1.9,0.2-3.9,0.4-4.4s0.5-0.9,0.6-0.9s0.8,0.7,1.5,1.5s1.9,1.9,2.6,2.4   c0.8,0.5,1.8,1.5,2.2,2.1c0.7,1.1,2.4,6.6,2.5,8c0,0.9-1.4,3.6-1.9,3.6c-0.2,0-0.5-0.5-0.7-1.1c-1-3.1-2.7-7.4-3-7.5   c-0.7-0.3-0.7,0.3,0,3c0.8,3.3,0.9,4,0.3,4c-0.3,0-0.9,0.1-1.4,0.2l-1,0.2v-1.2c0-0.7-0.4-2.3-1-3.8   C182.4,124.5,182.3,124.2,182.4,120.8 M171,92.7c0-0.5,0.2-1,0.3-1.1c0.2-0.1,1.6,0.9,3,2.2c2.2,1.9,3.1,2.5,5,3.2   c2.7,1,5.5,3.2,7.5,5.8l1.2,1.6l-0.1,2.7c-0.1,2.8-0.4,4.1-1.1,4.1c-0.2,0-1.3-1.3-2.3-3c-1.1-1.6-2.5-3.4-3.1-3.9   c-0.7-0.5-1.6-1.6-2-2.2c-1.5-2.4-3.1-3.5-3.6-2.5c-0.1,0.3,0.1,0.6,0.6,1c0.4,0.3,1.2,0.9,1.6,1.4c0.4,0.5,1.6,1.7,2.6,2.6   c2.2,2,2.6,2.6,3.7,5.1c0.9,2.1,0.9,2,0.5,2.5c-0.3,0.3-0.6,0.2-1.9-0.8c-0.9-0.6-2.5-1.7-3.7-2.5c-2.5-1.6-3.3-2.5-3.8-4.4   c-0.2-0.8-1-2.5-1.8-3.9C172.1,98.2,171,94.9,171,92.7 M162.5,86c0.5-0.4,0.5-0.4,0.7,0c0.3,0.5,0,1.2-0.5,1.2   c-0.2,0-0.4-0.2-0.5-0.4C162.1,86.6,162.2,86.2,162.5,86 M155.8,75.1c5,1.6,7.1,2,9,1.8c1.6-0.2,5.2,0.4,6,0.9   c0.3,0.2,0.5,1.1,0.6,2.2c0.1,1.6,0.1,1.8-0.4,2c-0.8,0.2-2.7-0.3-4.5-1.2c-1.1-0.6-1.8-0.8-2.6-0.7c-1.6,0.1-1.4,0.7,0.4,1.1   c0.8,0.2,2.6,0.7,4,1.3c2.5,1,2.5,1,3,2.4s0.4,2.1-0.1,2.1c-0.2,0-0.9-0.4-1.5-0.8c-0.7-0.4-2.1-1.1-3-1.4c-2.7-0.9-7.8-3.7-9.1-5   c-0.6-0.6-2-1.8-3.1-2.8c-1.1-0.9-2.2-2-2.4-2.4c-0.3-0.4-0.4-0.8-0.4-0.8C151.6,73.7,153.5,74.3,155.8,75.1 M153.2,54.9   c0.2-0.1,5.9,1.6,8.3,2.5c3.1,1.2,5.1,2.4,9.5,5.9c3.7,2.9,7.5,6.8,9.3,9.6c0.9,1.4,1.1,2,1.3,4.4c0.3,4.2,0.3,6.8,0,6.8   c-0.5,0-1.5-1.4-2.6-3.6c-1.5-2.9-2.6-4.9-2.9-4.9c-0.1,0-0.1,0.4,0,0.8c0.7,1.9,0,2-2.8,0.3c-1.9-1.2-3.9-1.9-8.7-3.2   c-1.4-0.4-3.1-0.9-3.7-1.2c-1.6-0.7-2-0.7-1.6,0s2,1.3,4,1.7c0.9,0.2,1.7,0.4,1.7,0.6c0.2,0.5-2.5,1-4.1,0.8   c-1.3-0.2-1.8-0.5-5.3-3.3c-2.7-2.1-4.5-3.9-5.9-5.6c-1.1-1.4-2-2.6-2-2.6c0-0.1,1.2-0.1,2.7,0c3.4,0.2,4.6,0.7,7.9,3.1   c2.3,1.7,2.9,2,6.2,3c5.5,1.7,6.1,1.9,7.7,2.9c2.5,1.6,2.6,1.7,2.8,1.7c0.4,0-0.2-1.4-1-2.5c-0.4-0.6-1.9-2-3.1-3.1   c-1.3-1.1-3.3-3-4.5-4.2c-2-2-2.8-2.6-2.8-2c0,0.3,0.8,1.2,3.8,4.2c1.3,1.3,2.3,2.5,2.3,2.7c0,0.9-4.2-0.5-6.3-2.1   c-0.8-0.6-1.8-1.7-2.3-2.4c-0.4-0.7-1.2-1.6-1.7-2.1c-0.5-0.4-2.1-2.4-3.5-4.4C154.2,56.6,153.1,54.9,153.2,54.9"/>
	<path id="laurel_izq_00000092437673711840679540000017126862026897936272_" class="st1" d="M112.1,198.5c-0.5-0.3-3.9-5.5-6.4-9.8   c-1.6-2.8-1.8-3.9-1.3-6.2c0.4-1.6-1.3-3.3-3.7-3.7c-0.8-0.1-1.1-0.1-1.5,0.3c-0.6,0.6-0.5,2.3,0.1,3.3c0.5,0.8,0.9,1.1,2.7,2.5   c0.9,0.7,4.6,7.4,5,9l0.2,1l-0.8-0.4c-0.4-0.2-1.5-1.2-2.3-2.1c-2.5-2.8-8.5-7.7-10.4-8.5c-0.9-0.4-2.3-1-3.1-1.4   c-1.8-1-6.3-2.5-9-3.1c-2.5-0.5-4.5-1.3-5-2c-0.2-0.3-0.5-1.1-0.6-1.8s-0.4-2.3-0.7-3.5c-0.5-2.1-0.5-2.3,0-3.6   c0.4-0.8,0.5-1.7,0.4-2.1c-0.4-1.2-3.1-1.9-4.2-1c-0.7,0.6-0.6,2.1,0.2,3.1c0.4,0.5,1.1,1.7,1.6,2.7c1.1,2.3,0.7,2.8-0.8,1   c-2.7-3-4.1-4.4-5.4-5.2c-1.8-1.1-3-2.4-3.6-3.9c-0.3-0.8-0.7-1.3-1.4-1.6l-1-0.5l0.1-2.7c0.1-1.6,0.3-2.9,0.5-3.2   c0.2-0.2,0.8-0.9,1.4-1.5c1.3-1.4,1.3-2,0-3.2c-1.2-1-2.4-1.2-3.2-0.5s-0.9,1.2-0.5,2.3c0.6,1.9,0.1,10.9-0.5,10.9   c-0.2,0-0.4-0.3-0.4-0.6c-0.1-0.3-1.1-2.3-2.2-4.4l-2.1-3.8l-0.2-3.8c-0.2-3.5-0.2-3.8-0.8-3.8c-0.4,0-0.8,0.3-1.2,0.8   c-0.8,1.2-2.3,2.5-2.7,2.3c-0.5-0.2-0.1-2.3,0.9-4.3c1.3-2.8,3.1-5.4,4.9-7.2c0.9-0.9,1.7-1.8,1.7-1.9c0-0.8-1.1-2-2.1-2.4   c-1.4-0.5-2-0.3-2.9,1.1c-0.5,0.9-0.6,1.1-0.2,2.2c0.3,1,0.3,1.5-0.1,2.7c-0.6,1.7-1.7,3.1-2.3,3.1c-0.4,0-1.1-1.4-1.1-2.3   c0-0.2-0.3-1-0.6-1.7c-0.4-0.7-0.6-1.7-0.6-2.1c0-0.4,0.7-2,1.6-3.5c0.9-1.5,1.8-3.5,2.1-4.5c0.6-2.1,1.7-3.3,3.7-3.9   c1.8-0.6,2.6-1.3,2.6-2.5c0-1-0.8-1.8-1.8-1.8c-0.9,0-1.2,0.3-2,1.8c-0.4,0.8-1.3,2.1-2,3.1c-0.7,0.9-1.5,2.5-1.8,3.5   c-0.6,2.1-2.7,5.7-3.3,5.7c-0.8,0-0.8-0.7-0.2-2.3c1.3-3.2,2.2-8.8,2.3-14.3c0-2.1-0.1-2.8-0.5-3c-0.8-0.5-0.6-0.7,0.7-1   c1.2-0.3,4.4-1.5,6.9-2.5c0.9-0.4,1.6-0.5,2.8-0.3c1.5,0.1,1.7,0.1,2.3-0.6c0.4-0.4,0.7-1.1,0.7-1.5c0-1-1.3-2.3-2.2-2   c-1.2,0.4-2.3,1.2-2.8,2.1c-0.6,1.1-1.7,1.8-4.4,2.7c-1.9,0.6-3.5,0.8-4,0.4c-0.3-0.3,1.5-1.9,3.4-3c2.3-1.3,3.1-2.3,3.9-4.7   c0.4-1.1,1.2-2.6,1.7-3.4c0.6-0.9,1.5-3,2.4-5.7c0.8-2.4,1.6-4.9,1.9-5.5c0.5-1,0.5-1.2,0.1-1.6c-0.7-0.7-0.5-1.3,0.6-2   c1.4-0.9,2.3-0.8,2.8,0.5c0.6,1.5,1.8,1.9,3,0.9c0.8-0.7,0.8-1.6,0-2.6c-0.8-1.1-0.6-1.5,1-2.1c0.7-0.2,1.6-0.9,2-1.4   s2.8-2.5,5.2-4.4c3.8-3,4.4-3.6,4.2-4.1c-0.2-0.6,0.4-1.4,1-1.4c0.7,0,1.7,0.9,2.2,2c0.6,1.4,1.3,2.1,1.9,2.1c0.7,0,2.1-1,2.3-1.8   c0.3-1-0.4-1.7-2-1.9c-0.6-0.1-1.8-0.5-2.7-0.8L81,70.8l-1.7,0.6c-1.6,0.5-2.4,0.5-2.4,0c0-0.1,0.6-0.8,1.4-1.6   c0.8-0.8,2.3-2.7,3.4-4.4l2-3L80,62.5c-3.3,0.2-3.9,0.3-6.4,1.2c-1.5,0.6-3.1,1.3-3.5,1.6l-0.8,0.6l0.6-0.8c1.4-1.7,5-6.6,5.6-7.5   c0.3-0.5,0.9-1.5,1.1-2.3l0.4-1L76.7,54l-2,0.3c-4.6,0.7-10.2,3-14.7,6.1c-2.8,1.9-2.9,1.8-2.2-2.2c0.4-2.4,0.7-3.1,2.2-4.7   c1.6-1.8,1.4-4-0.4-4c-0.9,0-2,0.7-2.6,1.6c-0.4,0.7-0.4,1-0.1,2.5c0.3,1.4,0.3,2-0.1,3.6c-0.3,1-0.6,2.6-0.7,3.5   c-0.3,2-0.9,3.1-2.2,4c-0.6,0.4-1.9,1.7-3,3s-3.7,3.6-5.8,5.3c-2.1,1.7-4.3,3.6-4.8,4.2c-1,1.2-4.5,6.6-5.2,8.1   c-0.5,1.1-1.1,1.5-1.7,1c-0.2-0.2-1-1.7-1.7-3.3c-1.2-2.8-1.2-3-0.8-3.8c1.5-2.7-0.8-5.2-3.1-3.4c-1.2,0.9-1,2,0.5,3.8   c0.7,0.9,1.5,2.1,1.8,2.7s0.6,1.3,0.8,1.4c0.3,0.3,1.8,3.5,2.1,4.5c0.1,0.4,0.1,0.8-0.1,1c-0.5,0.7-1.3,0-2.5-1.9l-1.1-2l-2.1,4.1   c-3.1,6-3.7,8.2-3.9,13.5c-0.1,3.6,0,4.9,0.5,7.2c0.3,1.6,0.6,2.8,0.5,2.9s-2.7-1-4.2-1.8c-1.1-0.6-1.4-0.9-1.4-1.5   c0-1-1.2-2.4-2.4-2.7c-1.4-0.3-2.5,0.6-2.5,2s0.4,1.7,2.7,2.4c3.9,1.2,7.3,3,8.3,4.4c0.7,1-0.1,1-1.3,0.1l-1.2-0.9l-0.3,0.7   c-0.2,0.4-0.4,1-0.5,1.4s-0.5,1.3-0.8,2.1c-1,2.4-1.4,4.2-1.1,5.5c0.1,0.7,0.3,2.8,0.4,4.7c0.2,4,0.2,4-2.9,3   c-3.4-1.2-3.5-1.2-4-2.5c-0.7-2-2.4-2.4-4.4-1.2c-1.1,0.7-1.2,1.8-0.1,2.6c0.5,0.4,1.4,0.7,3.1,1c5.3,0.9,6.7,1.8,6.5,4.7   c-0.2,3.1-0.1,6.3,0.2,8c0.2,0.9,0.6,2.9,0.9,4.3c0.3,1.4,0.8,3,1,3.5c0.3,0.6,0.4,1.1,0.2,1.2c-0.2,0.1-1.3,0.1-2.5,0   c-1.9-0.2-2.3-0.3-2.7-0.8c-0.3-0.3-1.1-1.1-1.8-1.7c-1.7-1.4-3-1.5-4.4-0.3c-1.6,1.2-1.2,2.9,0.7,3.7c1,0.4,1.3,0.4,6-0.1   c1.9-0.2,3.7,0.6,6.8,3c1.4,1.1,3.1,2.3,3.7,2.7s1.4,1.1,1.7,1.6c0.8,1.2,3.1,7.2,3.6,9.1c0.3,1.4,1.1,3,2.3,4.4   c0.7,0.9-0.1,1.1-3.4,1c-2.2-0.1-3.3-0.2-4.6-0.7c-1.5-0.6-1.8-0.6-2.5-0.2c-0.5,0.2-1,0.6-1.2,0.8c-0.9,1.1,1.4,3,3.6,3   c1.5,0,3-0.7,3-1.3c0-0.5,0.2-0.5,3.6-0.3c4.7,0.2,5.7,0.5,6.2,2.2c0.4,1.3-0.1,0.8,11.4,9.5c3.4,2.6,4.6,3.1,11.1,4.4   c3.1,0.6,5.1,1.3,5.1,1.7c0,0.6-1.7,0.8-6.9,0.7c-4.8,0-5.6-0.1-6.1-0.5c-0.4-0.3-1.2-0.7-2-1c-1.1-0.5-1.5-0.5-2.2-0.2   c-1.6,0.6-1.5,2.2,0.1,3.5c1.2,1,2.1,1,3.5,0.2c1-0.6,1.3-0.6,5.3-0.6h4.2l5,2.2c2.7,1.2,5.4,2.5,5.8,2.8c1.3,0.8,4.6,2.5,5.7,2.9   c1.4,0.5,6.8,1.3,8.5,1.3c0.9,0,2.1-0.3,3.3-0.8c1-0.4,2.6-0.9,3.5-1.1c0.9-0.2,2.3-0.6,3.3-0.9c2.9-1,3.4-0.7,1.4,0.7   c-3.2,2.3-8.4,4.5-10.3,4.5c-0.7,0-1.8,0-2.5-0.1c-1.7,0-3,0.6-3,1.5c0,0.8,1,1.3,3.2,1.6c1.6,0.2,1.7,0.2,2.9-0.8   c0.7-0.6,2.4-1.5,3.8-2.1c3.7-1.5,6.1-2.9,8.5-4.8c1.9-1.5,4-2.7,4.9-2.7c0.6,0-2.1,2.6-4.3,4.1c-1.1,0.8-4.1,2.6-6.6,3.9   c-4.8,2.6-6,3.5-7.2,5.3c-0.9,1.4-0.9,4.1,0,4.9c0.9,0.8,3,1.4,4.7,1.4c2,0,2.8-0.3,2.8-1.2c0-2.4,6.8-9.3,13.4-13.7   c3-2,4.8-3,6.2-3.3v-5.5C112.7,198.7,112.5,198.7,112.1,198.5 M102.5,182.9c-0.8,0.2-1.7-0.8-1.7-1.9c0-0.7,0.1-0.9,0.6-0.9   c0.3,0,0.9,0.3,1.1,0.6C103.2,181.5,103.1,182.7,102.5,182.9 M54.7,136.1c0.2,0.5-0.1,1-0.6,1c-0.3,0-0.5-0.2-0.5-0.5   C53.7,135.8,54.4,135.4,54.7,136.1 M58.7,109.2c0.2-0.2,0.3-0.2,0.6,0c0.2,0.1,0.2,0.4,0.1,0.6c-0.2,0.2-0.3,0.2-0.5,0.1   C58.6,109.6,58.5,109.4,58.7,109.2 M84.8,73.6c0.3-0.6,1.6-0.5,1.7,0.2s-0.8,1-1.5,0.6C84.8,74.2,84.7,73.8,84.8,73.6 M58.2,50.9   c0.7-0.6,1.1-0.6,1.9-0.2c0.8,0.3,0.8,0.9,0,1.5s-1.4,0.6-2.1,0.1C57.4,51.8,57.4,51.5,58.2,50.9 M30.3,77.4   c-0.4,1.1-2,1.1-2.3-0.1c-0.2-0.5,0-0.8,0.5-1.1c0.9-0.6,1.2-0.6,1.6,0.1C30.4,76.6,30.5,77,30.3,77.4 M17.2,109   c-0.1,0.5-0.3,0.6-1.2,0.6c-0.9,0-1.1-0.1-1.2-0.6c-0.1-0.3,0-0.7,0.1-0.9c0.2-0.5,1.6-0.5,2.1,0C17.1,108.2,17.3,108.6,17.2,109    M9.9,130.2c-0.8-0.2-0.9-1-0.1-1.4c0.9-0.4,1.5-0.2,1.6,0.5C11.5,130.1,10.9,130.4,9.9,130.2 M10.6,153.3c-1.1-0.2-1.6-1-1.1-1.7   s1.2-0.7,2.2,0C13,152.6,12.4,153.6,10.6,153.3 M25.6,177.9c-1,0-1.9-0.5-1.9-1c0-0.7,0.9-1,2-0.5   C26.6,176.8,26.5,177.9,25.6,177.9 M50.8,197.3c-1.1,0-2-1.3-1.3-1.9c0.3-0.3,0.5-0.3,1.3,0c0.5,0.2,1,0.6,1,0.8   C52.1,197,51.7,197.3,50.8,197.3 M85.4,211.4c-0.8,0-1.6-0.8-1.3-1.3c0.4-0.4,1.7-0.3,2.1,0.3C86.7,211,86.4,211.4,85.4,211.4    M76,178.6c0.2,0.1,1.1,0.5,1.9,0.9s1.7,0.7,2,0.7c1,0,8.2,2.3,10.8,3.4c2.5,1.1,7.6,4.6,9.9,6.9c1.7,1.7,0.5,1.5-2.8-0.6   c-1.1-0.7-3.5-2.1-5.5-3.1c-2-1.1-3.8-2.1-4-2.3c-0.6-0.6-1.4-0.5-1.2,0.2c0.1,0.3,0.8,0.9,1.9,1.5c1.8,1,5.6,3.4,7,4.5   c0.4,0.3,1.2,0.8,1.8,1c0.5,0.2,0.9,0.4,0.9,0.5c-0.2,0.1-6.5-1.6-7.7-2.1c-0.5-0.2-1.4-0.4-1.9-0.4c-1.2,0-2.5-0.5-4.8-1.9   c-3.2-1.9-5.4-4.1-7.2-6.9C75.5,178.8,75.3,178.3,76,178.6 M77.6,185.8c-0.2-0.3-0.2-0.8-0.2-1c0.2-0.5,4.2,3,4.2,3.7   c0,0.4-0.2,0.4-1.7,0.3c-1.8-0.2-2.8-0.5-2.8-0.9c0-0.1,0.2-0.5,0.4-0.9C77.8,186.5,77.9,186.2,77.6,185.8 M73.5,167.7   c-0.9,0-1.2-0.3-1-1c0.2-0.6,0.8-0.7,1.4-0.2C74.6,167,74.4,167.7,73.5,167.7 M61.2,151.2c0.3-0.7,1.3-0.4,1.3,0.4   c0,0.4-0.2,0.7-0.5,0.7C61.3,152.4,60.9,151.8,61.2,151.2 M61.8,166c0.9-0.8,1.1-0.7,4.8,2.4c3.3,2.7,4.4,4,5.5,6.4   c1.2,2.7,2,6.9,1.4,7.3c-0.5,0.4-1.9-0.5-2.9-2c-0.7-0.9-1.5-1.9-2-2.4c-0.4-0.5-1.2-1.6-1.6-2.7c-1-2.1-1.9-2.7-1.6-1.1   c0.2,1.5,4.4,8,5.5,8.7c0.7,0.4,1.7,1.8,2.1,2.8c0.7,2-0.2,1.9-3.6-0.2c-2.8-1.7-3.7-2.8-6.6-7.6c-2-3.2-2.2-4.1-2.2-7   C60.4,168,60.8,166.8,61.8,166 M60.8,177.8c0,0.1-0.2,0.1-0.5,0.1c-0.7,0-4-2.8-6.2-5.4c-2.4-2.7-3.6-3.8-3.8-3.4   c-0.1,0.2,0.5,1,1.2,1.8s2.1,2.3,3,3.4c0.9,1.1,2.6,2.8,3.6,3.9c1.1,1.1,2.1,2.2,2.3,2.4c0.5,0.6,0,0.7-1.2,0.1   c-0.6-0.3-1.7-0.6-2.4-0.7c-2.4-0.3-4.1-0.9-6.1-2c-2.5-1.4-2.6-1.5-5.2-4.8c-3.5-4.5-4.4-6.9-4.4-11.7c0-2.3,0.1-2.8,0.4-2.4   c0.2,0.3,1.2,1.1,2.2,1.9c1,0.8,3.2,2.1,4.8,3c7.3,3.8,7.1,3.7,9.5,8C59.3,174.3,60.8,177.4,60.8,177.8 M47,177.7   c-0.5,0-4.1-2.5-4.9-3.4c-0.8-0.9-2-3.4-2-4.2c0-0.6,0.9-0.2,1.3,0.5c0.6,1.2,3.9,5.1,4.9,5.8C47.2,176.9,47.5,177.7,47,177.7    M47.2,158.2c0-3.2,0.1-3.6,0.8-4.8c0.8-1.4,3-3,3.4-2.7c0.1,0.1,0.6,1.2,1,2.4s1.4,3.3,2.1,4.6c1.5,2.7,2,4.4,2,6.6   c0,1.7-0.3,2-1.4,1.4c-0.6-0.3-0.8-0.7-0.8-1.2c0-0.4-0.5-2-1.2-3.6c-1.3-3-1.9-3.4-2.4-1.8c-0.2,0.6-0.1,1.1,0.6,2.2   c1.8,3.1,0.4,3.6-2.8,1.2l-1.2-0.9L47.2,158.2L47.2,158.2z M46.6,141.6c0,0.5,0.2,1.4,0.4,2c0.7,2.1-0.7,7.7-1.8,7.4   c-0.5-0.1-0.8-1.5-1.2-5.2c-0.4-3.3-0.6-4.2-1.1-4.2c-0.7,0-0.8,1.6-0.3,3.5c0.3,1,0.5,2.4,0.5,3.2c0,1.7,0.8,5.9,1.4,7.7   c0.3,0.7,0.5,1.7,0.4,2.1c0,0.4,0.1,1,0.2,1.4c0.2,0.5,0,0.4-1.1-0.5c-1.5-1.3-1.6-1.5-2.9-5.4c-0.6-1.6-1.2-3.5-1.5-4.2   c-0.4-1-0.5-2.3-0.5-6.1c0-5.7,0.4-7.6,1.7-8.6c1-0.8,1.5-0.7,2.6,0.2C44.2,135.6,46.6,140.6,46.6,141.6 M45.7,126.9   c-0.6,1.5-1,3.1-1,3.8v1.2l-1-0.2c-0.5-0.1-1.2-0.2-1.4-0.2c-0.6,0-0.6-0.7,0.3-4c0.7-2.7,0.7-3.4,0-3c-0.2,0.1-1.9,4.4-3,7.5   c-0.2,0.6-0.5,1.1-0.7,1.1c-0.5,0-1.9-2.7-1.9-3.6c0.1-1.4,1.8-6.8,2.5-8c0.4-0.7,1.4-1.6,2.2-2.1s2-1.6,2.6-2.4   c0.7-0.8,1.3-1.5,1.5-1.5c0.1,0,0.4,0.4,0.6,0.9c0.2,0.5,0.4,2.5,0.4,4.4C46.7,124.2,46.6,124.5,45.7,126.9 M31.6,142   c0.3,0.5,0.5,0.9,0.5,1c0,0.2-5-2.8-5.5-3.3c-0.6-0.5-0.8-6.6-0.3-8.4c0.6-2.1,1.8-5.3,2.7-6.9l0.8-1.5l0.8,0.8   c0.4,0.4,1.5,2,2.4,3.6c0.9,1.6,2.1,4,2.6,5.4s1.3,3.2,1.6,4c0.7,1.4,0.7,1.8,0.5,6.3c-0.2,4.6-0.2,4.8,0.6,7.3   c0.8,2.2,0.9,3.1,0.3,2.7c-0.4-0.3-5.1-9.7-5.8-11.6c-0.4-1.2-0.9-2.9-1-3.8c-0.3-2.4-0.6-3-1.3-2.6c-0.3,0.2-0.5,0.8-0.5,1.3   C30.1,137.3,31,140.9,31.6,142 M36.8,114.8c-0.4,0-0.5,0.3-0.5,1.5c0,1.1-0.3,2-0.9,3.3c-0.5,1-1,2.5-1.2,3.5   c-0.2,1.8-0.7,2.4-1.1,1.5c-0.4-1.3-1.6-2.7-2.4-2.8c-0.7-0.1-0.8-0.3-0.7-1.3c0.1-0.6,0.5-2,0.9-3.1s0.9-2.8,1.1-3.8   c0.2-1,0.6-2.3,0.8-2.8c0.8-1.9,4-5.1,5-5.1c0.1,0,0.4,0.2,0.5,0.3c0.2,0.3,0.5,1,1.5,5.3c0.3,1.2,0.7,2.8,0.9,3.5   c0.5,1.9-0.3,4.4-1.8,5.8c-0.7,0.6-1.4,1.6-1.7,2.2c-1.4,2.9-1.8-0.4-0.5-3.9C37.7,116.4,37.7,114.8,36.8,114.8 M55.5,100.7   c-0.8,1.4-1.6,3.1-1.8,3.9c-0.5,1.9-1.3,2.8-3.8,4.4c-1.2,0.7-2.9,1.9-3.7,2.5c-1.3,0.9-1.6,1.1-1.9,0.8c-0.4-0.5-0.4-0.4,0.5-2.5   c1.1-2.5,1.5-3.1,3.7-5.1c1-0.9,2.2-2.1,2.6-2.6c0.4-0.5,1.1-1.1,1.6-1.4s0.7-0.7,0.6-1c-0.5-1-2.1,0.1-3.6,2.5   c-0.4,0.7-1.4,1.7-2,2.2c-0.7,0.6-2.1,2.3-3.1,3.9c-1.1,1.6-2.1,3-2.3,3c-0.7,0-1-1.2-1.1-4.1l-0.1-2.7l1.2-1.6   c2-2.6,4.8-4.8,7.5-5.8c1.9-0.7,2.8-1.3,5-3.2c1.5-1.3,2.8-2.3,3-2.2c0.2,0.1,0.4,0.6,0.3,1.1C58,94.9,56.9,98.2,55.5,100.7    M66.8,86.8c-0.1,0.2-0.3,0.4-0.5,0.4c-0.5,0-0.8-0.7-0.5-1.2c0.2-0.4,0.2-0.4,0.7,0C66.8,86.2,66.9,86.6,66.8,86.8 M77.5,73.8   c0.1,0-0.1,0.4-0.4,0.8s-1.4,1.5-2.5,2.4s-2.5,2.2-3.1,2.8c-1.3,1.2-6.4,4-9.1,5c-1,0.3-2.3,1-3,1.4C58.7,86.6,58,87,57.8,87   c-0.6,0-0.6-0.8-0.1-2.1c0.5-1.4,0.5-1.4,3-2.4c1.4-0.5,3.1-1.1,3.9-1.3c1.7-0.4,2-1,0.4-1.1c-0.8-0.1-1.5,0.1-2.6,0.7   c-1.7,0.9-3.7,1.4-4.5,1.2c-0.5-0.1-0.5-0.4-0.4-2c0.1-1.1,0.3-2,0.6-2.2c0.7-0.6,4.4-1.1,6-0.9c1.8,0.2,3.9-0.2,9-1.8   C75.5,74.3,77.4,73.8,77.5,73.8 M47.5,77.4c0.2-2.4,0.4-3,1.3-4.4c1.8-2.8,5.6-6.7,9.3-9.6c4.4-3.5,6.4-4.7,9.5-5.9   c2.4-0.9,8.1-2.7,8.3-2.5c0.1,0-1.1,1.7-2.5,3.7c-1.5,2-3,4-3.5,4.4s-1.2,1.3-1.7,2.1c-0.4,0.7-1.5,1.8-2.3,2.4   c-2.2,1.6-6.3,2.9-6.3,2.1c0-0.2,1-1.4,2.3-2.7c3-3,3.8-4,3.8-4.2c0-0.6-0.8,0-2.8,2c-1.2,1.2-3.3,3.1-4.5,4.2   c-1.3,1.1-2.7,2.5-3.1,3.1c-0.8,1.1-1.4,2.5-1,2.5c0.2,0,0.3-0.1,2.8-1.7c1.6-1,2.2-1.3,7.7-2.9c3.3-1,3.9-1.3,6.2-3   c3.3-2.4,4.5-2.9,7.9-3.1c1.5-0.1,2.7-0.1,2.7,0s-0.9,1.3-2,2.6c-1.4,1.7-3.3,3.5-5.9,5.6c-3.5,2.8-4.1,3.2-5.3,3.3   c-1.5,0.2-4.3-0.3-4.1-0.8c0.1-0.2,0.8-0.4,1.7-0.6c2-0.4,3.6-1,4-1.7s0-0.6-1.6,0c-0.6,0.3-2.3,0.8-3.7,1.2   c-4.8,1.3-6.8,2-8.7,3.2c-2.7,1.7-3.4,1.7-2.8-0.3c0.2-0.5,0.2-0.8,0-0.8c-0.3,0-1.4,1.9-2.9,4.9c-1.1,2.2-2.1,3.6-2.6,3.6   C47.2,84.1,47.2,81.5,47.5,77.4 M49,85.5c0.8-2.1,0.9-2.3,3.8-4.8l3-2.6l0.1,3.5c0.1,2.7,0,3.8-0.4,4.4c-0.3,0.5-0.8,2-1.2,3.5   c-1.2,4.3-1.2,4.3-2.5,5.1c-1.6,0.9-3,1.2-3.7,0.9c-0.5-0.2-0.4-0.4,1.2-1.6c1.2-0.9,2-1.8,2.4-2.7c0.4-0.8,0.7-1.6,0.9-1.8   c0.1-0.3,0.1-0.4-0.1-0.4c-0.2,0-0.7,0.6-1.2,1.3c-0.5,0.7-1.9,2.2-3.2,3.4c-4.9,4.3-6.1,5.9-6.8,8.2c-0.5,1.8-2.4-0.3-2-2.2   c0.4-1.7,1.7-4.6,2.6-5.5c0.5-0.5,1.9-1.8,3-2.9C47.6,88.9,48,88.4,49,85.5 M34.9,89.8c0.4-0.8,1-2.6,1.5-3.9c1.1-3,3-6.3,4.7-8.2   c1.5-1.6,5.1-4.7,5.3-4.5c0.1,0.1,0,1-0.2,2.2S46,78,46.1,78.6s0,2-0.3,3.1s-0.5,3.1-0.6,4.3c-0.1,1.7-0.3,2.6-0.8,3.5   c-0.7,1.3-2.7,3.2-3.3,3.2c-0.4,0-0.4-1.9,0.2-4.5c0.5-2.6,0.6-4.2,0.2-4.2c-0.5,0-1,1.4-1.3,3.8c-0.2,1.3-0.7,3.8-1.1,5.5   c-0.7,2.5-0.8,3.8-0.8,7c0,2.3-0.1,3.9-0.3,3.9c-0.6,0-1-1-1-2.9c0-2.1-0.3-3.4-1.5-6.3C34.2,92.3,34.2,91.6,34.9,89.8 M28.2,89.6   c0.2-0.4,0.5-0.6,0.8-0.6s1.3,1,2.4,2.3c2.9,3.4,3,3.5,3.4,9.4l0.3,5.1l-1.4,1.5c-0.8,0.8-1.6,1.5-1.8,1.5c-0.6,0-0.9-1.2-0.8-4.4   c0-1.6-0.1-3-0.3-3c-0.3,0-0.7,4.6-0.7,8.8c0,2.4-0.2,3.6-0.8,5.7c-0.5,1.5-1,2.7-1.1,2.7c-0.3,0-1.1-1.6-1.8-3.7   c-0.4-1.1-0.6-2.7-0.6-5.6c0-2.6-0.3-5-0.6-6.5C24.3,98.6,24.6,97.2,28.2,89.6 M22.4,117.9c0.7-1.2,1-1.3,1.7-0.5   c1.7,1.9,3.5,4,3.9,4.8c0.6,1,0.8,0.5-1.9,4.2c-1.4,1.9-1.9,4.4-1.8,8.9c0,1.6,0,2.9-0.1,3s-0.7-0.7-1.3-1.7   c-1-1.8-1.1-2.2-1.5-6.1c-0.2-2.3-0.5-4.7-0.7-5.2C20.2,123.6,21,120.6,22.4,117.9 M26.8,158.4c-4.3-3.9-6-6.9-6.7-11.6   c-0.2-1.4-0.5-2.9-0.7-3.4c-0.2-0.6-0.2-1.9-0.1-3.2c0.3-3.1,0.9-3.5,2.6-2.1c0.5,0.4,1.7,1.2,2.6,1.8c0.9,0.5,3.1,2.2,5,3.6   c2.9,2.3,3.6,3,4.7,4.8c0.7,1.2,1.8,3.4,2.4,5c0.6,1.6,1.3,3.2,1.6,3.7c0.3,0.6,0.6,1.7,0.7,3.1c0.2,2.9-0.3,3-1.9,0.3   c-0.6-1.1-1.3-2-1.4-2.1c-0.1-0.1-1.4-1.2-2.8-2.4c-2.7-2.4-3.3-3.5-4.1-6.5c-0.4-1.8-0.9-2.2-0.9-0.7c0,2.8,1.4,5.2,5.2,8.9   c1.1,1.1,1.9,2.2,2.4,3.4c0.9,2.1,0.9,2.4,0.3,2.6C34.4,163.8,30.2,161.5,26.8,158.4 M39.8,177.3c-1.6-0.8-3.9-2.4-4.9-3.5   c-0.6-0.6-1.6-3.4-2.9-7.4c-0.6-2.1,0-2.4,2.6-1.5c0.8,0.3,2,1.1,2.7,1.8c1.2,1.2,1.3,1.4,1.1,2.5c-0.3,2,0.7,4.1,3.4,6.6   c2.1,2.1,3.2,2.7,6.6,3.8l1.3,0.4l-5.6-0.1l-1.4-1.1C41.9,178.4,40.6,177.7,39.8,177.3 M49.8,187.6c-6.5-4.6-6.7-4.8-6.1-5.2   c0.4-0.3,1.4-0.4,5.3-0.5c2.6,0,4.8-0.1,4.9-0.2c0.5-0.4,3.5-0.1,4.6,0.4c0.6,0.3,1.9,1,2.8,1.6c0.9,0.6,2.3,1.3,3.1,1.6   c1.9,0.6,3.4,1.6,7,4.3l2.8,2.1l-1.5-0.4c-0.8-0.2-2.9-0.9-4.6-1.6c-1.7-0.7-4.5-1.5-6-1.9s-3.9-1.1-5.2-1.6   c-2.2-0.8-4.2-1.2-4.2-0.7c0,0.1,1,0.5,2.2,0.9s5.6,2.1,9.9,3.8c5.5,2.2,8.3,3.1,9.8,3.4c1.1,0.2,2,0.4,2,0.5   c0,0.5-2.5,0.3-8.2-0.6C57.1,191.7,54.4,190.9,49.8,187.6 M67.1,197.3c-1.2,0-1-0.4,0.2-0.7c1.4-0.3,3.5-0.3,3.5-0.1   C70.8,196.8,68.3,197.3,67.1,197.3 M92.9,203.6c-2.4,0.5-4.8,1.1-5.5,1.4c-1.2,0.5-1.2,0.5-3.8-0.1c-1.4-0.3-3.2-0.8-3.9-1   c-2.2-0.8-8.7-4.4-8.8-4.9c-0.1-0.3,0.3-0.6,1.1-0.9c0.7-0.2,2.4-0.9,3.8-1.4c3.3-1.3,4.3-1.2,7.1,0.1c4.1,1.9,5.2,2.2,9,2.8   c4.5,0.7,6.2,1.3,2.8,1.1c-6.4-0.4-9.7-0.7-11.4-1c-2-0.4-3.6-0.4-3.5,0c0,0.1,1.3,0.6,2.7,1c2.4,0.7,3.1,0.8,7.2,0.8   c3,0,4.8,0.1,5.2,0.3c0.4,0.2,1.3,0.3,2.1,0.3C98.9,202.2,98,202.5,92.9,203.6 M103.2,197.3c-0.1,0.1-1.7-0.3-3.6-0.9   c-1.9-0.6-4.6-1.2-5.9-1.4s-3.1-0.6-3.9-0.8c-1.7-0.4-2.5-0.5-2.7-0.1c-0.2,0.3,2.2,1.3,4.2,1.8c3,0.7,4.6,1,6.3,1.3   c1.8,0.3,5.3,1.6,4.6,1.8c-0.2,0.1-3.2,0-6.6-0.2c-5.5-0.3-6.4-0.4-8-0.9c-3.6-1.3-7.9-3.8-11.6-6.9c-1.6-1.3-1.9-1.9-0.5-1.1   c0.4,0.2,1.1,0.3,1.9,0.2s2.4,0.1,4.1,0.4c1.5,0.3,4.5,0.6,6.6,0.8c3.9,0.3,5.9,0.6,7.4,1.5c0.5,0.3,2,0.9,3.4,1.4   c1.8,0.7,2.8,1.2,3.5,2C102.9,196.7,103.3,197.2,103.2,197.3 M91.6,220.1c-2.2-0.1-4.1-1.6-3.1-2.5c0.5-0.5,1.4-0.3,2.9,0.6   C93.5,219.6,93.5,220.2,91.6,220.1 M108.3,203c-0.5,1.2-2,3-4.4,5c-2.6,2.2-6.8,6.3-8.5,8.3c-1.4,1.6-2.1,1.7-4.4,0.7   c-1.9-0.8-2.1-1.1-1.4-2.2c0.6-0.9,1.6-1.6,5.8-4.1c3.7-2.2,6.8-4.2,10.4-6.7C108.2,202.3,108.6,202.1,108.3,203"/>
	<path id="RSME_00000000926253967196826750000003738284010521839003_" class="st1" d="M99.3,101.8c2.4,1.2,4.9,3.2,6.3,5.1   c1.8,2.3,4.4,7,4.4,7.9c0,1.8-3.2,4.2-6.6,4.9c-2.7,0.5-4.5-0.3-5.5-2.6c-0.7-1.6-2.7-3.7-4.2-4.4c-0.9-0.4-2-0.7-3.9-0.8   c-1.5-0.1-2.9-0.3-3.2-0.5c-0.7-0.4-0.7-1.3-0.1-3.3c1.9-5.4,4.4-7.6,8.7-7.4C97,100.8,97.7,100.9,99.3,101.8 M108.1,81.4   C101.8,83,95.5,88.6,95,93.2c-0.2,1.7,0.1,2.9,1,4.2c0.4,0.6,0.8,1.3,0.8,1.3c0,0.1-0.9,0.2-2.1,0.3c-7.7,0.6-12.2,4.2-13.5,10.6   l-0.5,2.3l-1.7,0.5c-5.7,1.5-11.8,4.5-14.3,7.1c-3.3,3.4-4.7,9.1-3.4,14.2c1,3.7,2.7,6.5,4.6,7.3c1.5,0.6,2.9,0.2,5-1.4   c1.7-1.4,2.1-2.2,1-2.2c-2.5,0-5.8-2.5-7.2-5.4c-2.7-5.4-0.9-10.6,4.5-12.8c2.7-1.1,7.3-2,8.3-1.7c0.9,0.3,0.9-0.4-0.2,9.3   c-1.8,15.7-4,24.8-6.3,26c-1,0.5-1.7,1.4-1.5,1.9c0.2,0.4,0.6,0.4,4.8,0.3c6.3-0.2,9.5-0.9,10.9-2.3c0.3-0.3,0.6-0.8,0.6-1   c0-0.3-0.2-0.4-0.9-0.2c-0.5,0.1-2,0.3-3.4,0.4c-1.4,0.1-2.8,0.3-3,0.4c-0.7,0.3-0.9-0.5-0.4-1.7c1-2.4,2.5-10.2,4.7-23.8   c1.1-7,1.7-9.9,2-10.2c0.6-0.6,3-0.8,4-0.3c1,0.4,2.2,2.1,2.7,3.6c0.5,1.6,0.2,4.7-0.5,6.6c-0.9,2.3-3,5.3-5.3,7.5   c-1.1,1.1-2,2.1-2,2.2c0,0.2,0.6,1,1.4,1.9s2.6,3.4,4,5.7c7.6,12.2,11.4,17.4,15.8,21.7c5.7,5.7,12.8,8.8,18.9,8.5   c3.4-0.2,4.8-0.7,5.4-2.1c0.7-1.5,0.7-4.1,0-4.6c-0.5-0.3-0.7-0.2-2.2,1c-5.8,4.6-11.4,3.8-17.5-2.5c-3.7-3.8-6.8-8.4-11.2-16.9   c-5.8-11.1-6.8-12.6-8.8-14.2l-0.8-0.6L90,133c2.8-2.4,6.2-6,7.1-7.7c1.4-2.5,1.6-2.7,3.4-2.7c3.5,0,8.5-1.8,10.7-3.8l0.6-0.5   l0.8,0.8c0.4,0.5,1,1.4,1.3,2.1s0.9,2.3,1.5,3.4c1.7,3.7,2,4.8,1.8,7.5c-0.3,4.7-2.6,14.1-4.8,19.6c-1.2,3.1-1.4,3.3-2.8,4.2   s-1.8,1.4-1.7,2.1l0.1,0.6l6-0.1c3.3,0,6.2-0.1,6.5-0.2c0.4-0.1,1.6-1.7,1.6-2.2c0-0.2-1.1-0.3-3.7-0.2c-4.7,0.1-4.9-0.1-3.7-1.9   c1-1.5,1.8-3.7,2.7-8c1.9-8.9,2-9.1,2.7-8.5c0.8,0.7,2.9,5.6,6.7,15.8c0.8,2.1,1.6,4.1,1.7,4.4c0.8,1.4,1.6,0.1,4-6.4   c1.8-4.9,2.4-6.4,4.6-11.1c1.4-3,6.2-12.4,6.6-12.8c0.1-0.1,0.2,0,0.4,0.2s-0.3,2.7-1.5,7.1c-3.4,13.4-3.4,18.7-0.3,22.5   c0.4,0.5,0.9,0.8,1.1,0.8c0.2,0,1.6-1.1,3.1-2.5c5.3-4.8,6.2-5.9,5.1-6.3c-0.3-0.1-0.9,0.3-2,1.5c-1.8,1.8-2.8,2.3-3.4,1.5   c-0.8-1.1-0.3-5.1,2.1-17.3c1.3-6.8,1.8-8.7,2.8-11.1c0.7-1.6,1.3-3.3,1.3-3.7c0.2-1.1-0.6-1.4-3.5-1.4c-2.1,0-2.5,0.1-3.4,0.7   c-1.6,1.1-3.5,1.6-5.3,1.5c-4.5-0.4-8.1-3.5-8.1-6.9c0-1.6,0.8-3.2,2.4-5c2.2-2.3,5.6-4.2,8.9-5.1c3.9-1,6.2-1.9,6.8-2.5   c1.2-1.2,0.5-1.4-2.3-0.8c-3.3,0.8-5.2-0.4-6.1-3.6c-1.3-4.7,1.4-8.9,6.3-9.8c2.6-0.5,5.2,0.7,5.6,2.6c0.4,1.9,0.5,1.9,1.3,0.3   c0.6-1.2,0.8-1.8,0.8-3.3c0-1.8,0-1.9-0.9-2.5c-1.2-0.8-2.9-1.1-8.1-1.4c-4.8-0.3-9-0.1-12.8,0.7c-6.3,1.3-12.2,4.3-14.8,7.4   c-4,5-4,14.8-0.1,18.8c1.1,1.2,1.4,1.3,2.5,1.3c1.3,0,3.7-1.3,3.7-1.9c0-0.2-0.6-0.7-1.3-1.2c-1.6-1-3.5-3.9-4.5-6.6   s-1-5.7-0.1-7.6c1.4-2.8,4.2-4.7,8.3-5.6c2.1-0.5,13.2-0.9,13.2-0.6c0,0.1-0.9,1.1-2,2.1c-2.3,2.3-3.5,4.4-3.6,6.7   c-0.2,2.8,0.7,4.2,3.2,5.1l1.4,0.5l-1.9,1c-2.7,1.4-6.7,4.3-8.6,6.3c-1.1,1.1-2,2.4-2.7,3.7c-0.9,1.7-1,2.2-1,3.9   c0,4.9,2.9,7.3,9.1,7.6c2.2,0.1,3,0,4.6-0.4c2.5-0.8,3.4-0.9,3.4-0.6c0,0.2-1,2-2.3,4.1c-3,5.1-5.8,10.7-8.1,16.3   c-1,2.6-2,4.7-2.2,4.8c-0.1,0-0.5-1.1-0.7-2.5c-1.1-5.8-3.5-11.8-9.8-24.5c-2.7-5.3-4.3-8.9-4.4-9.7c-0.9-5.6-2.1-7.6-8.6-13.2   c-5.9-5.1-6.7-6.1-6.7-8.4c0-1.7,1-3.2,3-4.3c2.8-1.5,5.9-1.3,7.9,0.7c0.7,0.8,0.9,1.2,1,2.4c0.1,0.8,0.2,1.5,0.3,1.5   c0.2,0,2-2.3,2.9-3.8c1.4-2.3,1.1-3.7-1-5C112.9,81.1,110.3,80.8,108.1,81.4"/>
	<path id="corona_00000173860443628001651610000009056163270811038875_" class="st1" d="M153.1,36.2c-0.3-0.3-0.4-0.8-0.4-1.2   c0.1-0.6-0.1-0.8-0.7-1.3c-0.4-0.3-0.8-0.8-0.8-1c0-0.7-0.8-1.5-1.4-1.5c-0.4,0-0.7-0.2-0.9-0.6c-0.4-0.7-0.7-0.9-1.4-0.9   c-0.3,0-0.8-0.3-1.2-0.6c-0.5-0.5-0.9-0.6-1.7-0.6c-0.6,0-2-0.1-3.1-0.2c-1.5-0.2-2.2-0.4-3.1-1c-0.6-0.4-1.5-0.9-2-1   s-1.1-0.3-1.4-0.6c-0.3-0.2-0.9-0.4-1.4-0.4s-1.2-0.2-1.6-0.4c-0.4-0.2-1-0.3-1.6-0.2c-0.6,0.1-1.3,0-1.8-0.1   c-0.6-0.2-1-0.2-1.6,0.1c-0.4,0.2-1.2,0.3-1.7,0.3s-1.1,0.1-1.5,0.3c-0.3,0.2-0.9,0.4-1.2,0.4c-0.3,0-0.8,0.2-1.1,0.4   c-0.7,0.5-2.2,0.7-2.9,0.5c-0.4-0.2-0.6-0.5-0.7-1.1c-0.1-1.1-0.7-2.2-1.6-2.9c-0.5-0.4-0.8-0.8-0.8-1.3c0-0.7,0.1-0.7,0.9-0.7   c0.9,0,0.9,0,0.9-1.1s0-1.1-0.8-1.2s-0.8-0.2-0.9-1l-0.1-1H113l-0.1,1c-0.1,0.9-0.2,1-0.9,1c-0.8,0.1-0.8,0.1-0.8,1.2   s0,1.1,0.8,1.2c1.3,0.1,1.3,1.1,0.1,2.1c-1,0.8-1.6,2-1.6,3.1c0,0.9-1.3,1.1-2.8,0.5c-0.6-0.2-1.4-0.5-1.8-0.6s-0.9-0.3-1.2-0.5   c-0.3-0.2-1-0.3-1.5-0.3s-1.3-0.1-1.7-0.2c-0.5-0.2-1-0.2-1.4-0.1s-1.2,0.2-2,0.1c-1-0.1-1.4,0-1.6,0.3s-0.6,0.3-1,0.3   c-0.5-0.1-1.1,0-1.7,0.4c-0.5,0.3-1.4,0.7-2,0.8c-0.5,0.2-1.3,0.6-1.7,0.9c-0.6,0.5-1.1,0.7-2.6,0.8c-1,0.1-2,0.2-2.1,0.4   c-0.2,0.1-0.7,0.2-1.2,0.1c-0.7-0.1-1,0-1.7,0.5C82.1,29.7,81.4,30,81,30c-0.5,0-0.8,0.2-1.1,0.8c-0.3,0.5-0.6,0.8-1,0.8   c-0.7,0-1.4,0.6-1.4,1.4c0,0.4-0.3,0.7-0.8,1c-0.6,0.3-0.8,0.6-0.8,1.4c0,0.5-0.2,1.2-0.5,1.6c-0.5,0.6-0.5,1-0.4,3.1   c0.1,3.4,0.8,5.2,2.8,7.3c1.5,1.6,1.5,1.7,1.4,2.8c-0.1,0.8-0.1,1.3,0.2,1.9l0.4,0.8h-0.2l0.4,0.4l0.1-0.3l1,0.2   c1.2,0.3,2.1,0.1,2.7-0.6c0.7-0.8,1.4-0.6,2.2,0.6c0.4,0.6,1.1,1.3,1.6,1.5c0.5,0.3,0.9,0.6,0.9,0.8c0,0.1,0.6,0.9,1.4,1.6   c1.3,1.2,1.4,1.5,1.4,2.5c0,0.9,0.2,1.3,0.9,2.2c0.5,0.6,0.9,1.2,0.9,1.3s0.4,0.6,0.8,1.1c0.9,1.1,2.9,1.8,6,2.2   c3.2,0.4,20.1,0.6,25,0.3c7.2-0.5,9.3-1.2,10.5-3.5c0.4-0.7,0.9-1.4,1.3-1.7c0.4-0.3,0.6-0.8,0.7-1.9c0.1-1.3,0.2-1.5,1.2-2.3   c0.6-0.5,1.2-1.2,1.4-1.5c0.2-0.4,0.8-0.9,1.3-1.3c0.5-0.4,1.2-1,1.5-1.5c0.7-1.1,1.2-1.3,1.8-0.6c1,1,2.5,1.1,3.9,0.4   c0.7-0.4,1.2-1.8,1-2.8c-0.1-0.8,0-1,1-2.1c1.5-1.6,1.9-2.2,2.5-4.1C153.8,41,153.8,37,153.1,36.2 M152,36.5   c0.4,0.1,0.6,0.3,0.6,0.7c0,0.5-0.2,0.7-0.6,0.7c-0.3,0-0.6-0.1-0.7-0.3C151,37,151.4,36.4,152,36.5 M151.7,34.2   c0.2,0.1,0.3,0.5,0.2,0.8c-0.1,0.8-1.3,0.9-1.5,0.2C150.3,34.1,150.9,33.7,151.7,34.2 M149.7,31.6c0.1,0,0.3,0.2,0.5,0.4   c0.5,0.6,0.2,1.3-0.5,1.3c-0.4,0-0.7-0.2-0.7-0.5C148.8,32.4,149.3,31.6,149.7,31.6 M147.2,30.3c0.5-0.2,0.8-0.1,1.1,0.4   c0.4,0.6-0.4,1.4-1,1C146.8,31.2,146.7,30.4,147.2,30.3 M144.1,29.6c0.2-0.6,1.2-0.7,1.7-0.2c0.2,0.3,0.2,0.5,0,0.9   C145.3,31.4,143.8,30.7,144.1,29.6 M143,29.2c0.2,0.3,0.2,0.5-0.1,0.8c-0.5,0.5-1.2,0.3-1.2-0.3C141.7,28.8,142.5,28.5,143,29.2    M140.3,29.1c0.2,0,0.4,0.1,0.3,0.3c-0.2,0.5-0.7,0.6-0.7,0.1C139.9,29.3,140.1,29.1,140.3,29.1 M139.1,29c0.9,1.3,1.9,4.8,1.9,6.4   c0,2.6-1.6,5.8-3.8,7.4c-1.7,1.3-2,1-0.4-0.5c2.9-2.9,3.9-7.3,2.6-11.3c-0.2-0.7-0.6-1.5-0.8-1.7s-0.3-0.5-0.3-0.7   C138.1,28.1,138.6,28.3,139.1,29 M135.3,52.5c-0.8,0.8-1.9-0.3-1.2-1.1c0.4-0.5,1-0.4,1.4,0.2C135.6,52,135.6,52.2,135.3,52.5    M136.1,54.1c0,0.1-0.2,0.2-0.4,0.2c-0.4,0-0.5-0.3-0.2-0.6C135.7,53.6,136.1,53.8,136.1,54.1 M134.9,42.5c-0.9,0-1.2-0.8-0.5-1.3   c0.6-0.5,1.5,0,1.4,0.8C135.7,42.4,135.5,42.5,134.9,42.5 M138.1,36.2c0.3,0,0.6,0.2,0.8,0.4c0.7,0.8-0.3,2.1-1.2,1.5   C136.8,37.6,137.1,36.2,138.1,36.2 M138.5,33.2c0.2,0,0.5,0.2,0.6,0.4c0.5,0.6,0.2,1.3-0.6,1.3c-0.5,0-0.8-0.1-0.9-0.5   C137.6,33.8,138,33.2,138.5,33.2 M137.4,39.1c1,0.5,0.3,2-0.7,1.7c-0.7-0.2-0.9-0.9-0.4-1.4C136.8,38.7,136.8,38.7,137.4,39.1    M137.8,29.8c0.2,0,0.4,0.1,0.6,0.3c0.8,0.8,0,2-1,1.5C136.6,31.2,136.9,29.8,137.8,29.8 M135.6,27.5c0.7-0.7,1.6-0.3,1.5,0.7   c-0.1,0.5-0.2,0.7-0.8,0.8C135.3,29.1,134.9,28.3,135.6,27.5 M133,26.1c0.3-0.4,0.5-0.4,1.1-0.2c0.5,0.2,0.5,1.2,0,1.6   C133.4,28.2,132.4,26.9,133,26.1 M131.7,25.4c0.4,0.4,0.1,1.3-0.4,1.5c-0.6,0.2-1.4-0.3-1.4-0.8C130,25.1,131.1,24.6,131.7,25.4    M128.7,25.4c0.2,0.3,0.3,0.5,0.1,0.8c-0.4,0.6-1.1,0.7-1.5,0.2C126.5,25.4,127.9,24.5,128.7,25.4 M124.5,25.5   c0.6-0.4,0.8-0.3,1.2,0.2c0.7,0.9-0.1,1.8-1.1,1.3C124,26.7,123.9,25.9,124.5,25.5 M121.8,26.7c0.3-0.4,0.7-0.5,1.3-0.2   c0.2,0.1,0.3,0.5,0.2,0.8c-0.1,0.5-0.2,0.6-0.9,0.6C121.6,27.9,121.2,27.3,121.8,26.7 M119.9,27.4c0.3-0.3,0.8-0.1,0.8,0.4   c0,0.3-0.2,0.5-0.5,0.5C119.7,28.3,119.5,27.8,119.9,27.4 M118.9,28.1c0.1,0.5-0.1,0.7-0.3,0.8c-0.2,0.1-0.4,0.2-0.4,0.4   c0,0.4,2.5-0.1,5.1-1c2.4-0.8,2.9-0.9,5.5-0.9c2.5,0,3,0.1,4.2,0.7c1.9,0.9,3,1.9,3.6,3.2c1.4,3.1-0.5,8.6-3.4,10.1   c-0.9,0.5-1.2,0.5-2.1,0.2c-0.8-0.3-1-0.2-1.4,0.1c-0.3,0.2-0.7,0.4-0.9,0.4c-0.7,0-1.8-0.7-2.4-1.4c-0.6-0.8-0.7-1.6-0.1-2.7   c0.5-0.9,1.6-1,2.1-0.3c0.3,0.4,0.2,0.6-0.4,1.2l-0.7,0.7l0.6,0.5c1.6,1.3,3.7,0.9,5.5-0.9c1.6-1.6,2.3-3.3,2.1-5.4   c-0.2-1.8-1-3-2.9-4c-2.1-1.1-4.5-1.2-8.7-0.5c-3.5,0.6-6,0.7-6.4,0.2c-0.4-0.4-0.4-1.5,0-1.9C118,27,118.8,27.3,118.9,28.1    M132.8,42.5c0,0.2-0.1,0.4-0.2,0.4c-0.3,0-0.6-0.4-0.4-0.6C132.5,42,132.8,42.1,132.8,42.5 M125.5,40.7c0.5,1.3,0.5,1.4-0.6,2   c-1.3,0.8-1.9,1.7-2.2,3.5c-0.2,1.2-0.4,1.4-0.9,1.5c-1,0.1-1.3-0.4-1.3-1.9c0-0.9-0.1-1.5-0.4-1.7c-0.2-0.2-0.4-0.6-0.4-0.8   c0-0.3-0.6-1.2-1.4-2c-1.6-1.7-1.8-2.4-0.8-3.8c0.3-0.5,0.8-1.2,1-1.6c0.8-1.3,2.1-1.5,4.4-0.7c1.1,0.4,2.1,0.5,4.4,0.5   c3.1,0,5.2,0.4,6.2,1.3l0.6,0.5l-1.2,1.2c-1,1.1-1.3,1.2-2.3,1.2c-1.2,0-1.2,0-1.3-1c-0.4-2.3-2-3-3.5-1.6   C125,38.1,124.9,39.2,125.5,40.7 M121.4,50c-0.4,0-0.7-0.2-0.8-0.5c-0.2-0.6,0.3-1.3,0.8-1.3c0.2,0,0.5,0.2,0.7,0.4   C122.5,49.2,122.1,50,121.4,50 M108,45.9c0.1,1.5-0.1,1.8-0.9,1.8c-0.7,0-1.2-0.7-1.2-1.7c0-1.1-1.2-2.9-2.2-3.3   c-1-0.4-1.1-1-0.5-2.6c0.7-1.7-0.3-3.7-2-3.7c-1,0-1.5,0.6-1.9,1.9c-0.3,1.2-0.3,1.3-1.4,1.3c-1,0.1-1.2,0-2.2-1.1   c-0.6-0.6-1.1-1.3-1.1-1.5c0.1-0.2,0.7-0.5,1.4-0.8c1-0.4,2.1-0.6,5-0.7c2.5-0.1,4.1-0.3,4.7-0.6c1.3-0.5,2.6-0.5,3.5-0.1   c0.3,0.2,0.8,0.7,1,1.1c0.2,0.4,0.6,1,0.8,1.3c0.6,0.7,0.8,1.8,0.5,2.5c-0.2,0.3-0.9,1.2-1.5,1.9c-0.7,0.7-1.2,1.5-1.2,1.8   s-0.2,0.6-0.4,0.8C108.1,44.6,108,45.1,108,45.9 M107.6,49.9c-0.9,0.6-1.7-0.6-0.9-1.3c0.4-0.4,0.6-0.4,1.1,0.1   C108.3,49.1,108.2,49.5,107.6,49.9 M96.6,30.7c0-0.9,0-1,0.6-1s0.6,0.1,0.6,1s0,1,0.8,1s1.2-0.3,0.6-0.6c-0.3-0.2-0.3-1.2-0.1-1.5   c0.1-0.1,0.5-0.1,0.8-0.1c0.5,0.1,0.7,0.3,0.7,0.7c0,0.3,0,0.7-0.2,0.9c-0.4,0.5-0.1,0.7,0.9,0.7c0.9,0,1-0.2,0.5-1   c-0.2-0.4-0.2-0.6,0-0.9c0.4-0.5,0.7-0.5,1.1,0c0.3,0.3,0.3,0.5,0.2,0.9c-0.4,0.7-0.3,0.8,0.6,0.8c1,0,1.1-0.1,0.5-0.7   c-0.3-0.3-0.3-0.5-0.1-0.7c0.2-0.2,0.4-0.4,0.6-0.4c0.4,0,0.7,0.7,0.5,1c-0.1,0.1,0.3,0.2,0.9,0.2c2,0,0.8,1-2.1,1.7   c-2.1,0.5-10.4,0.8-10.4,0.4c0-0.9,0.5-1.3,1.7-1.3h1.1L96.6,30.7z M96.9,33.7c5.6,0,9.1-0.7,11.8-2.4c0.8-0.5,1.5-0.8,1.7-0.8   c0.1,0,0.2,0.5,0.2,0.9c-0.1,0.5-0.2,1.3-0.4,1.8l-0.3,0.9l-2.2,0.2c-1.2,0.1-2.6,0.3-3,0.6c-0.6,0.3-1.5,0.4-3.7,0.4   s-3.3,0.1-4.8,0.5c-1.1,0.3-2,0.5-2.1,0.3c-0.1-0.1-0.3-0.7-0.4-1.3l-0.2-1.1C93.5,33.7,96.9,33.7,96.9,33.7z M116.1,28.3   c-1.1,1.1-4.1,0.5-4.1-0.8c0-0.8,2.6-1.3,3.8-0.7C116.7,27.3,116.8,27.7,116.1,28.3 M117.2,30.8c0.8,2.3,0.8,4.9,0.1,5.7   c-0.4,0.4-0.6,0.5-0.7,0.2c-0.3-0.6-0.6-7.6-0.3-7.6C116.5,29.1,116.9,29.8,117.2,30.8 M115.9,32.7c0,0.2-0.1,0.3-0.3,0.3   c-0.2,0-0.3-0.1-0.3-0.3s0.1-0.3,0.3-0.3S115.9,32.5,115.9,32.7 M114.8,33.6c0.2,0.1,0.3,0.5,0.2,0.8c-0.1,0.7-1.2,0.9-1.6,0.2   C113,33.9,114,33.1,114.8,33.6 M113.4,31.2c0.2-0.7,1.4-0.8,1.6-0.2c0.2,0.4-0.2,1.2-0.6,1.3C113.9,32.5,113.3,31.7,113.4,31.2    M113.7,36.8c0.5-0.4,0.5-0.4,1.1-0.1c1,0.5,0.3,1.9-0.8,1.7C113.3,38.4,113.1,37.3,113.7,36.8 M113.3,32.5c0,0.3-0.5,0.4-0.6,0.2   s0-0.3,0.2-0.3S113.3,32.4,113.3,32.5 M112.4,31.3c-0.2,3.9-0.4,5.7-0.6,5.7c-0.4,0-1-1.7-1-2.9c0-0.9,0.8-4.1,1.2-4.8   C112.3,28.7,112.5,29.5,112.4,31.3 M109.4,44.7c0.2-0.2,0.4-0.6,0.4-0.9c0-1,0.7-1.1,1.4-0.2c0.4,0.5,0.7,0.7,0.9,0.5   c0.2-0.2,0.1-0.5-0.2-0.9c-0.6-0.8-0.7-1.1-0.4-1.2c0.8-0.3,1.2-0.6,1-1c-0.4-1,0-1.3,1.7-1.2c0.9,0,1.7,0.1,1.9,0.2   c0.2,0.1,0.3,0.5,0.2,1c-0.1,0.7,0.1,0.9,1,0.8c0.4-0.1,0.2,0.9-0.3,1.4c-0.3,0.3-0.5,0.6-0.5,0.8c0,0.6,0.7,0.4,1-0.3   c0.6-1.1,1.5-0.7,1.5,0.6c0,0.3,0.2,0.6,0.4,0.8c0.2,0.2,0.4,0.8,0.4,1.6c0,1-0.1,1.4-0.7,2.1c-0.8,1-1.1,1.1-1.9,0.3   c-0.5-0.6-0.8-0.6-2.9-0.6s-2.3,0-3.1,0.7l-0.8,0.7l-0.7-0.9c-0.6-0.7-0.7-1.1-0.7-2.4C109,45.4,109.1,44.9,109.4,44.7 M123.1,30.4   c-0.2-0.6,0.6-1,1-0.6c0.2,0.2,0.2,0.4,0,0.8c-0.4,0.7-0.4,0.8,0.5,0.8c0.7,0,0.8-0.1,0.6-0.7c-0.1-0.4,0-0.8,0.1-1   c0.3-0.4,0.3-0.4,0.9-0.2c0.5,0.2,0.6,1.3,0.2,1.5c-0.5,0.3,0,0.6,0.9,0.6s1-0.2,0.6-1c-0.3-0.6,0.1-1.3,0.9-1.3   c0.7,0,1.1,0.9,0.7,1.4c-0.5,0.5-0.3,0.9,0.6,0.9c0.9,0,0.9,0,0.7-0.9c-0.1-0.7-0.1-0.9,0.3-1.1c0.3-0.1,0.6,0,0.9,0.3   c0.3,0.3,0.4,0.5,0.1,0.9c-0.5,0.7-0.4,0.8,0.9,0.8c1.1,0,1.3,0.1,1.5,0.6c0.4,0.9,0.1,1-4.5,0.8c-5-0.2-8.7-1-8.7-2   c0-0.1,0.5-0.2,1-0.2C123.1,30.9,123.2,30.8,123.1,30.4 M130.3,33.6l4.5,0.1v0.9c0,1.7-0.2,1.8-2.4,1.1c-1.5-0.4-2.6-0.6-4.7-0.6   c-2.1,0-3.1-0.1-4.2-0.5c-0.9-0.3-2.1-0.5-3.1-0.5h-1.6l-0.4-1.3c-0.4-1.4-0.5-2.6-0.2-2.5c0.1,0,1.1,0.6,2.4,1.2   C123.7,33.2,125.1,33.4,130.3,33.6 M116,23.7c0.1-0.2,0.3-0.2,0.4-0.1c0.2,0.1,0.2,0.3,0,0.4C116.1,24.4,115.8,24.1,116,23.7    M112.7,19.9c-0.8,0-0.9-0.1-0.9-0.6c0-0.6,0.1-0.6,0.9-0.6s0.9-0.1,0.9-0.9s0.1-0.9,0.8-0.9c0.7,0,0.8,0.1,0.8,0.9   s0.1,0.9,0.8,0.9c0.6,0,0.8,0.1,0.8,0.6s-0.1,0.6-0.8,0.6c-0.7,0-0.8,0.1-0.8,0.8c-0.1,0.7-0.2,0.8-0.8,0.9c-0.7,0.1-0.7,0-0.7-0.8   C113.6,19.9,113.5,19.9,112.7,19.9 M112.2,23.7c0.1-0.2,0.3-0.2,0.4-0.1c0.2,0.1,0.2,0.3,0,0.4C112.3,24.4,111.9,24.1,112.2,23.7    M112.2,24.9c0.5-0.1,0.9-0.4,1-0.5c0.5-1.6,0.7-1.8,1.1-1.7c0.3,0,0.7,0.5,0.9,1.1c0.3,0.7,0.6,1,1.2,1.1c0.8,0.2,1.2,0.7,0.8,1.2   c-0.2,0.2-1.2,0.3-3,0.3c-2.7,0-2.8,0-2.8-0.6C111.4,25.3,111.6,25.1,112.2,24.9 M107.8,27.6c0.2-0.4,0.9-0.3,1.1,0.2   c0.1,0.4-0.7,0.7-1,0.4C107.8,28,107.7,27.7,107.8,27.6 M105.4,26.8c0.2-0.3,0.5-0.5,0.8-0.5s0.6,0.2,0.8,0.5   c0.2,0.4,0.2,0.6,0,0.9C106.2,28.5,104.9,27.8,105.4,26.8 M103,25.5c0.6-0.3,0.7-0.3,1,0c0.4,0.4,0.4,1.4-0.1,1.6   C102.9,27.5,102.1,26.1,103,25.5 M99.8,25.4c0.2-0.5,1-0.5,1.4,0c0.5,0.6,0.2,1.3-0.6,1.3C99.9,26.7,99.5,26.1,99.8,25.4 M97,25.3   c0.5-0.5,1.2-0.4,1.5,0.2s0.1,1.3-0.5,1.5C97,27.2,96.3,26,97,25.3 M94.9,25.8c0.2,0,0.5,0.1,0.7,0.3c0.8,0.8-0.2,2-1.2,1.5   C93.5,27.1,93.9,25.8,94.9,25.8 M99.8,27.3c1.7,0,2.5,0.1,5,1c2.7,0.9,5.4,1.4,5.4,1.1c0-0.1-0.2-0.3-0.4-0.6   c-0.3-0.4-0.4-0.5-0.1-1c0.3-0.6,0.8-0.7,1.4-0.1c0.5,0.5,0.5,1,0.1,1.7s-2.4,0.6-6.5,0c-4.2-0.7-6.6-0.6-8.8,0.5   c-2.1,1.1-3,2.3-3,4.3c0,2.4,1.2,4.7,3.2,6c1.5,1,3.2,0.9,4.6-0.3c0.4-0.4,0.4-0.4-0.3-1c-0.6-0.5-0.7-0.7-0.4-1   c0.4-0.6,1.3-0.7,1.9-0.2c1.2,1.1,0.8,2.9-0.9,3.9c-1,0.6-1.5,0.7-2.3,0.1c-0.5-0.3-0.8-0.4-1.5-0.1c-2.2,0.7-5-2.3-5.8-6.2   c-0.5-2.5,0.2-4.8,1.7-5.9C95.3,28,97.2,27.3,99.8,27.3 M96.4,42.5c0,0.2-0.1,0.4-0.2,0.4c-0.3,0-0.6-0.4-0.4-0.6   C96.1,42,96.4,42.1,96.4,42.5 M93.4,51.4c0.4-0.5,0.6-0.5,1.1,0s0.1,1.5-0.7,1.4C93.2,52.7,92.9,51.9,93.4,51.4 M93.4,54.1   c0,0.1-0.2,0.2-0.4,0.2c-0.4,0-0.5-0.3-0.2-0.6C93,53.6,93.4,53.8,93.4,54.1 M93.2,41.1c0.4-0.4,0.6-0.4,1.1,0.1s0.4,0.8-0.2,1.2   C93.2,43,92.4,41.9,93.2,41.1 M89.7,36.4c0.3-0.3,1.3-0.1,1.6,0.4c0.1,0.3,0.2,0.7,0.1,0.9c-0.2,0.5-1.1,0.8-1.5,0.4   C89.5,37.7,89.4,36.7,89.7,36.4 M89.3,34.2c-0.1-0.9,0.9-1.4,1.5-0.7c0.2,0.2,0.2,0.6,0.1,0.9C90.7,35.2,89.4,35.1,89.3,34.2    M91.2,39.1c0.6-0.4,1.4,0,1.4,0.6c0,0.7-0.7,1.2-1.2,0.9C90.8,40.3,90.7,39.5,91.2,39.1 M91.7,27.5c0.6-0.6,0.6-0.6,1.3-0.2   c0.3,0.2,0.4,0.6,0.4,1c-0.1,0.5-0.2,0.6-0.8,0.6C91.5,29,91.1,28.2,91.7,27.5 M91.4,30.2c0.5,0.5,0.1,1.6-0.7,1.7   c-0.2,0-1-0.8-1-1c0-0.3,0.7-1,1-1C90.9,29.8,91.2,30,91.4,30.2 M88.5,29.5c0,0.1-0.1,0.2-0.2,0.3c-0.1,0-0.3-0.1-0.3-0.3   C88,29.1,88.4,29.1,88.5,29.5 M88.6,30.9c0.7-1.8,1.3-2.6,1.7-2.4c0.1,0.1,0.1,0.3-0.2,0.6c-0.6,0.7-1.4,3.8-1.4,5.5   c0,3.1,1.2,6.1,3.4,8c0.7,0.6,1.1,1.1,0.9,1.1c-1,0-3.4-2.2-4.3-4.1C87.4,36.8,87.3,34.2,88.6,30.9 M86.2,28.8   c0.3,0,0.6,0.2,0.7,0.4c0.1,0.2,0,0.6-0.3,0.8c-0.4,0.4-0.5,0.4-0.8,0C85.3,29.5,85.5,28.8,86.2,28.8 M82.7,29.6   c0.2-0.7,1.3-0.7,1.6-0.1c0.5,1-0.8,1.8-1.5,1C82.7,30.3,82.6,29.9,82.7,29.6 M81.7,30.7c0.2,0.3,0.2,0.5-0.1,0.8   C81,32,80.3,31.7,80.3,31C80.3,30.1,81.2,29.9,81.7,30.7 M78.4,32c0.5-0.5,0.7-0.5,1.1-0.1c0.8,0.8,0,1.9-0.9,1.3   C78,32.9,77.9,32.5,78.4,32 M76.8,34.3c0.4-0.5,1-0.4,1.4,0.2c0.2,0.4,0.2,0.6-0.1,0.9C77.2,36.2,76,35.1,76.8,34.3 M75.9,36.9   c0.1-0.3,0.4-0.4,0.8-0.3c0.5,0.1,0.7,0.2,0.7,0.7S77.2,38,76.7,38C76,38.1,75.6,37.6,75.9,36.9 M76.4,39c0.5,0,0.7,0.1,0.6,0.6   c-0.1,0.4-0.3,0.6-0.6,0.6c-0.3,0-0.5-0.2-0.6-0.6C75.7,39.2,75.8,39,76.4,39 M76,42.4c-0.3-0.5,0-1,0.6-1c0.3,0,0.5,0.3,0.5,0.6   C77.1,42.6,76.3,42.9,76,42.4 M77.5,44.7c-0.3,0-0.5-0.2-0.5-0.5c0-1,0.8-1.1,1-0.1C78,44.5,77.9,44.7,77.5,44.7 M78.7,46.6   c-0.6-0.2-0.5-0.9,0.1-0.9c0.3,0,0.5,0.1,0.6,0.2C79.6,46.3,79.1,46.8,78.7,46.6 M78.5,43.3c-0.8-1.6-0.8-1.8-0.7-3.8   c0.2-2.6,0.9-4.1,2.7-5.8c1.4-1.3,2.3-1.8,4.3-2.5c1.6-0.6,2.7-0.6,2.8-0.1c0.1,0.2,0,0.6-0.2,0.9c-0.3,0.5-0.4,0.5-1.8,0.4   c-1.8-0.2-3,0.3-4.4,1.8c-1.4,1.6-1.9,3-1.9,5.4c0,2.5,0.6,4.1,2,5.6c1.2,1.2,3.4,1.7,5,1.2c0.5-0.2,0.5-0.2,0.1-0.9   s-0.4-0.8,0-1.4c0.5-0.7,1-0.8,1.7-0.1c0.6,0.6,0.6,1.2,0,2.2s-1.1,1.2-2.9,1.5c-1.2,0.1-1.7,0.1-2.7-0.4   C80.8,46.4,79.4,45.1,78.5,43.3 M87.2,35.2v2l-1.3,0.6c-0.7,0.3-2.2,1.3-3.2,2.2s-2,1.7-2.1,1.7s-0.2-1-0.2-2.3   c0.1-2,0.2-2.4,0.9-3.4c0.9-1.2,1.9-1.9,3.8-2.6c0.7-0.2,1.3-0.4,1.3-0.5c0,0,0.2,0.1,0.4,0.1C87.1,33.2,87.2,33.6,87.2,35.2    M80.8,47.9c-0.4,0.5-0.9,0-0.6-0.6c0.1-0.4,0.2-0.4,0.5-0.1C81,47.5,81,47.6,80.8,47.9 M85.9,50.5c-1.1-0.7-1.6-0.7-2.8,0.2   c-1.2,0.9-1.7,1-2.5,0.6s-0.6-1.4,0.3-2.1c0.7-0.6,1-0.7,3.5-0.7H87v1C87,50.7,86.7,51,85.9,50.5 M87.8,53.3c-0.4,0-1.1-1-1-1.3   c0.2-0.4,0.5-0.4,0.9,0C88,52.5,88.1,53.3,87.8,53.3 M94.9,60.2c-0.6,0.6-1.8,0.7-2.3,0.2s-0.4-1.4,0.3-1.8c0.7-0.5,1.6-0.5,2.1,0   C95.5,59.2,95.5,59.6,94.9,60.2 M111.3,55.7c-0.7,0.7-0.7,1.1,0,1.7c0.5,0.5,0.5,0.5-0.3,0.6c-0.5,0.1-2,0.3-3.4,0.4   c-1.4,0.2-4.6,0.6-7,1s-4.5,0.8-4.6,0.8s0-0.2,0-0.5c0.2-0.7-0.1-1.5-0.7-1.7c-1-0.3-0.1-0.6,4.3-1.4c4.1-0.7,8.4-1.3,11.6-1.5h0.6   L111.3,55.7z M112.1,56.2c0.8-0.8,2.3-1,3.6-0.5c1.1,0.5,1.2,1.2,0.2,1.6c-1,0.5-3,0.4-3.7-0.2C111.7,56.7,111.7,56.7,112.1,56.2    M95.7,63.8c-0.3,0-0.3-0.9-0.1-1.1c0.3-0.3,0.3-0.2,0.3,0.5C95.9,63.5,95.8,63.8,95.7,63.8 M97.1,63.4c-0.1,1.5-0.7,1.6-0.7,0.1   c0-0.9,0.1-1.2,0.4-1.2C97.1,62.3,97.2,62.5,97.1,63.4 M98,64.8c-0.1,0-0.3-0.6-0.3-1.4c0-0.8,0.1-1.4,0.3-1.4   c0.1,0,0.3,0.6,0.3,1.4C98.2,64.2,98.1,64.8,98,64.8 M99.2,65c-0.2-0.1-0.3-0.7-0.4-1.7c-0.1-1.3,0-1.6,0.3-1.6s0.4,0.3,0.4,1.7   C99.5,64.7,99.4,65.1,99.2,65 M100.4,65.1c-0.3,0-0.4-0.4-0.4-1.8c0-1.4,0.1-1.8,0.4-1.8s0.4,0.4,0.4,1.8S100.7,65.1,100.4,65.1    M101.6,65.1c-0.1,0-0.3-0.8-0.3-1.8c0-1,0.1-1.8,0.3-1.8c0.1,0,0.3,0.8,0.3,1.8C101.8,64.3,101.7,65.1,101.6,65.1 M102.8,65.4   c-0.2,0-0.3-0.8-0.3-2c0-1.2,0.1-2,0.3-2c0.1,0,0.3,0.8,0.3,2C103.1,64.5,103,65.4,102.8,65.4 M104,65.4c-0.3,0-0.4-0.4-0.4-2.2   s0.1-2.2,0.4-2.2s0.4,0.4,0.4,2.2S104.3,65.4,104,65.4 M105.3,65.4c-0.3,0-0.4-0.4-0.4-2.3c0-1.9,0.1-2.3,0.4-2.3s0.4,0.4,0.4,2.3   C105.6,64.9,105.6,65.4,105.3,65.4 M106.4,65.4c-0.2,0-0.3-0.9-0.3-2.3c0-1.4,0.1-2.3,0.3-2.3s0.3,0.9,0.3,2.3   C106.7,64.4,106.6,65.4,106.4,65.4 M107.7,65.4c-0.2,0-0.3-1-0.3-2.4c0-1.5,0.1-2.4,0.3-2.4c0.2,0,0.3,1,0.3,2.4   C107.9,64.4,107.8,65.4,107.7,65.4 M108.8,65.4c-0.3,0-0.4-0.4-0.4-2.4s0.1-2.4,0.4-2.4s0.4,0.4,0.4,2.4   C109.2,64.9,109.2,65.4,108.8,65.4 M110.1,65.4c-0.3,0-0.4-0.4-0.4-2.4s0.1-2.4,0.4-2.4s0.4,0.4,0.4,2.4   C110.5,64.9,110.4,65.4,110.1,65.4 M111.3,65.4c-0.2,0-0.3-1-0.3-2.6c0-1.5,0.1-2.6,0.3-2.6c0.2,0,0.3,1,0.3,2.6   C111.5,64.3,111.4,65.4,111.3,65.4 M112.4,65.4c-0.3,0-0.4-0.4-0.4-2.4c0-1.3,0.1-2.5,0.2-2.6c0.5-0.5,0.6,0.1,0.6,2.4   C112.8,64.9,112.7,65.4,112.4,65.4 M113.7,65.4c-0.3,0-0.4-0.4-0.4-2.6c0-1.9,0.1-2.6,0.3-2.5c0.2,0.1,0.3,0.9,0.4,2.6   C114.1,65,114.1,65.4,113.7,65.4 M115,65.4c-0.3,0-0.4-0.5-0.4-2.6s0.1-2.6,0.4-2.6s0.4,0.5,0.4,2.6S115.3,65.4,115,65.4    M116.1,65.4c-0.2,0-0.3-1-0.3-2.6c0-1.5,0.1-2.6,0.3-2.6c0.2,0,0.3,1,0.3,2.6C116.4,64.3,116.3,65.4,116.1,65.4 M117.4,65.4   c-0.2,0-0.3-1-0.3-2.6c0-1.5,0.1-2.6,0.3-2.6c0.2,0,0.3,1,0.3,2.6C117.7,64.3,117.6,65.4,117.4,65.4 M118.6,65.4   c-0.3,0-0.4-0.4-0.4-2.4s0.1-2.4,0.4-2.4S119,61,119,63C119,64.9,118.9,65.4,118.6,65.4 M119.8,65.4c-0.3,0-0.4-0.4-0.4-2.4   s0.1-2.4,0.4-2.4s0.4,0.4,0.4,2.4C120.2,64.9,120.2,65.4,119.8,65.4 M121,65.4c-0.2,0-0.3-1-0.3-2.4c0-1.5,0.1-2.4,0.3-2.4   c0.2,0,0.3,1,0.3,2.4S121.2,65.4,121,65.4 M122.1,65.4c-0.3,0-0.4-0.4-0.4-2.3c0-1.9,0.1-2.3,0.4-2.3s0.4,0.4,0.4,2.3   C122.5,64.9,122.5,65.4,122.1,65.4 M123.4,65.4c-0.3,0-0.4-0.4-0.4-2.3c0-1.7,0.1-2.3,0.3-2.2c0.2,0.1,0.3,0.8,0.4,2.3   C123.8,65,123.8,65.4,123.4,65.4 M124.6,65.4c-0.1,0-0.3-0.9-0.3-2.2s0.1-2.2,0.3-2.2c0.2,0,0.3,0.9,0.3,2.2   C124.8,64.5,124.7,65.4,124.6,65.4 M125.8,65.3c-0.2-0.1-0.3-0.8-0.4-2.1c-0.1-1.6,0-2,0.3-2s0.4,0.4,0.4,2.1   C126.1,64.9,126,65.4,125.8,65.3 M127,65.1c-0.3,0-0.4-0.4-0.4-1.8c0-1.4,0.1-1.8,0.4-1.8s0.4,0.4,0.4,1.8S127.3,65.1,127,65.1    M128.2,65.1c-0.1,0-0.3-0.8-0.3-1.8c0-1,0.1-1.8,0.3-1.8c0.1,0,0.3,0.8,0.3,1.8C128.4,64.3,128.3,65.1,128.2,65.1 M129.4,65.1   c-0.1,0-0.3-0.7-0.3-1.7c0-0.9,0.1-1.7,0.3-1.7c0.1,0,0.3,0.7,0.3,1.7C129.7,64.4,129.6,65.1,129.4,65.1 M130.6,64.8   c-0.3,0-0.4-0.3-0.4-1.4s0.1-1.4,0.4-1.4c0.3,0,0.4,0.3,0.4,1.4C131,64.5,130.9,64.8,130.6,64.8 M132.2,63.4   c-0.1,1.5-0.7,1.6-0.7,0.1c0-0.9,0.1-1.2,0.4-1.2C132.2,62.3,132.3,62.5,132.2,63.4 M127.7,60.8c-10.7-1.6-15.6-1.7-25.7-0.2   c-3.2,0.5-5.9,0.8-6,0.8c-0.3-0.3,0.7-0.6,4.2-1.2c3.4-0.6,6.4-1,9.6-1.3c2.1-0.2,7.2-0.1,10,0.1c4.8,0.4,12.1,1.6,12.8,2.1   C133.4,61.5,132.3,61.5,127.7,60.8 M117.2,55.6c-0.2-0.3-0.3-0.5-0.2-0.5s1.8,0.2,3.8,0.4c3.3,0.4,12.4,1.8,12.7,2.1   c0.1,0.1-0.2,0.3-0.5,0.5c-0.5,0.3-0.6,0.6-0.5,1.3c0.1,0.5,0,0.9,0,0.9c-0.1,0-2-0.3-4.4-0.7c-2.3-0.4-5.5-0.9-7.2-1   c-1.6-0.2-3.2-0.4-3.6-0.4c-0.6-0.1-0.6-0.2-0.2-0.4C117.8,57.3,117.8,56.2,117.2,55.6 M132.6,63.5c-0.2-0.4,0.1-1.1,0.4-0.9   c0.1,0.1,0.3,0.4,0.3,0.6C133.3,63.9,132.9,64,132.6,63.5 M135.1,60.8c-1.5,0-2.5-1.6-1.4-2.3c0.6-0.3,0.9-0.3,1.7,0   C136.8,59.1,136.5,60.8,135.1,60.8 M140.3,51.3c-0.5,0.6-0.7,1.1-0.7,1.9c0,0.6-0.1,1.4-0.3,1.6c-0.4,0.7-2.3,1.5-3,1.3   c-0.5-0.1-0.6-0.1-0.5,0.5c0.2,0.9-0.1,1-1.5,0.4c-1.3-0.6-8.4-1.8-14-2.4c-2.7-0.3-5-0.4-7.7-0.3c-5.8,0.2-15.9,1.7-18.3,2.7   c-1.3,0.6-1.8,0.5-1.6-0.3c0.2-0.7-0.1-1.1-0.5-0.7c-0.3,0.2-0.6,0.2-1.2,0c-1.3-0.4-1.9-1.2-2-2.9c-0.1-1-0.3-1.7-0.7-2   c-0.6-0.6-0.7-1.6-0.2-2.3c0.3-0.4,0.5-0.4,1.5-0.3c0.8,0.1,1.2,0.3,1.2,0.5c0,0.5,0.4,0.5,0.6,0c0.1-0.4-0.7-1.1-1.3-1.1   c-0.2,0-0.5-0.2-0.7-0.5C89,47,89,46.8,89.2,45.8s0.2-1.3-0.1-1.9c-0.6-1.1-1.4-1.4-2.4-1c-0.9,0.4-1.2,1.1-0.9,2.3L86,46l-1.3-0.1   c-1.5-0.2-2.9-1.1-3.6-2.4l-0.4-0.9l1.8-1.6c1.6-1.4,3.9-2.9,4.6-2.9c0.1,0,0.6,0.7,0.9,1.5c0.7,1.5,2.2,3.2,3.9,4.6   c1,0.8,1,0.8,1.1,2.7c0,1,0.2,2.2,0.3,2.5c0.2,0.6,0.2,0.7-0.5,1.2c-0.6,0.5-0.7,0.8-0.7,1.6c0,1,0,1-0.8,1c-0.5,0-1,0.2-1.3,0.3   c-0.9,0.7,0.4,2,2,2c0.3,0,1.1-0.3,1.7-0.8c0.6-0.4,1.4-0.8,1.7-0.8c0.4,0,0.6-0.2,0.6-0.5c0-0.5,0.4-0.9,1.1-1.1   c0.4-0.2,1.1,0.3,1.3,0.9c0.1,0.3,0.2,0.3,0.4,0c0.4-0.4,0.1-2.1-0.4-2.1c-0.2,0-0.7,0.2-1,0.4c-0.6,0.4-0.6,0.4-0.9-0.2   c-0.2-0.5-0.5-0.7-1.1-0.8c-1-0.2-1.2-0.5-1.4-2.7c-0.2-2.4,0.5-3.1,1.9-2c1,0.7,1.1,0.1,0.2-0.8l-0.7-0.8l0.6-0.5   c0.8-0.6,2-0.9,3.2-0.7c0.5,0.1,1,0,1.3-0.2c0.5-0.4,1.4-0.5,1.4-0.2c0,0.1-0.2,0.5-0.5,0.9c-0.6,0.8-0.7,1.7-0.2,1.7   c0.2,0,0.7-0.4,1.2-0.9c1-1.1,1.6-0.9,2.3,0.8c0.9,2.1,1,3,0.3,4.2c-0.6,1-0.6,1-1.9,1s-1.4,0-1.4,0.6c0,1.5,2.2,2.5,3.5,1.5   c0.5-0.4,0.4-0.5-1-0.4c-0.8,0-1,0-1-0.5c0-0.6,0.5-0.9,1-0.6c0.5,0.3,0.8,0.1,0.8-0.5s0.3-0.8,0.9-0.6c0.5,0.2,0.6,1,0.2,1.3   c-0.4,0.2-0.3,0.6,0.1,0.6c0.2,0,0.5-0.2,0.6-0.5c0.3-0.5,1.3-0.7,1.3-0.3c0,0.3,0.8,0.4,1.1,0.1c0.1-0.1,0-0.4-0.3-0.7   c-0.4-0.4-0.4-0.5,0-0.9c0.4-0.3,0.4-0.3,0.8,0.2c0.3,0.5,0.6,0.6,1.1,0.5s0.7,0,0.7,0.4c0,0.5-0.1,0.5-0.8,0.4   c-0.6-0.1-0.8-0.1-0.7,0.2c0.1,0.2,0.5,0.3,1.1,0.3c1.2,0,1.7-0.6,1.2-1.4c-0.3-0.5-0.2-1.3,0.1-1.3c0.7-0.2,3.6-0.1,3.9,0.1   c0.3,0.2,0.4,0.4,0.3,1.4c-0.2,1-0.1,1.2,0.5,1.3c0.9,0.2,1.8,0.1,1.9-0.3c0.1-0.2-0.2-0.3-0.7-0.3c-0.6,0-0.9-0.1-0.9-0.4   c-0.1-0.4,0-0.5,0.6-0.3c0.7,0.1,1.2-0.2,1.5-0.9c0.1-0.2,0.2-0.2,0.4-0.1c0.4,0.2,0.4,1.2,0.1,1.2c-0.1,0-0.3,0.2-0.3,0.4   c0,0.4,0.9,0.5,1.2,0.1c0.3-0.5,1.2-0.3,1.3,0.3c0.1,0.3,0.3,0.5,0.6,0.5c0.5,0,0.6-0.4,0.2-0.6c-0.3-0.2-0.3-1.1,0-1.3   s1.1,0.3,0.9,0.6c-0.1,0.1,0,0.3,0.1,0.5c0.2,0.2,0.3,0.3,0.7,0.1c0.6-0.3,1.3,0,1,0.6c-0.1,0.3-0.4,0.4-1,0.4   c-1.3-0.1-1.4,0-0.8,0.4s1.9,0.5,2.5,0c0.6-0.4,1.1-1.4,0.9-1.9c-0.1-0.2-0.6-0.4-1.4-0.4c-1.2,0-1.3-0.1-1.8-0.8   c-0.3-0.5-0.5-1.2-0.5-1.7c0-1.2,1-3.5,1.7-4c0.5-0.3,0.6-0.3,1.5,0.6c0.7,0.7,1,0.9,1.2,0.7c0.2-0.2,0.1-0.6-0.3-1.3   c-0.7-1.3-0.5-1.6,0.6-1c0.5,0.2,1.2,0.3,1.5,0.3c1-0.2,2.3,0.1,3.1,0.7l0.7,0.5l-0.8,0.8c-0.9,0.9-0.7,1.4,0.3,0.6   c1.4-1.1,2-0.4,1.8,2c-0.1,2-0.4,2.6-1.5,2.8c-0.6,0.1-0.9,0.3-0.9,0.6c0,0.7-0.3,0.8-1.1,0.4c-1-0.5-1.5-0.3-1.5,0.7   c0,1.2,0.3,1.3,0.9,0.5c0.5-0.6,0.6-0.6,1.2-0.3c0.4,0.2,0.7,0.5,0.7,0.8s0.2,0.5,0.4,0.6s1.1,0.5,1.9,0.9c1.6,0.8,2.1,0.9,3.1,0.5   c0.6-0.3,1.1-1.4,0.8-1.7c-0.1-0.1-0.6-0.2-1.2-0.3c-1-0.1-1.1-0.2-1-1s-0.5-1.7-1.2-1.9c-0.2-0.1-0.2-0.3,0-1.1   c0.2-0.6,0.3-1.7,0.3-2.5V45l2-1.9c1.4-1.3,2.3-2.4,2.9-3.6c0.5-0.9,1-1.6,1.1-1.6c0.6,0,3.3,1.7,4.7,3.1l1.6,1.5l-0.6,1.1   c-0.7,1.3-2.3,2.3-3.6,2.3h-1l0.2-1c0.1-0.9,0.1-1.1-0.5-1.6c-0.9-0.9-1.6-0.8-2.5,0.1c-0.7,0.7-0.8,0.8-0.6,2.4l0.2,1.6l-1,0.5   c-1,0.5-1.5,1.2-1.2,1.5c0.1,0.1,0.3,0,0.5-0.2s0.7-0.5,1.3-0.7c1.1-0.3,1.6,0,1.8,1.2C141,50.4,140.9,50.7,140.3,51.3 M141.5,37.2   v-2c0-1.1,0.1-2,0.2-2.1c0.2-0.2,0.9-0.1,2.8,0.6c1.5,0.6,2.7,1.6,3.4,2.9c0.5,0.9,0.7,3.7,0.4,4.5c-0.2,0.6-0.3,0.5-2.3-1.1   c-1.1-1-2.6-1.9-3.3-2.2L141.5,37.2z M140.9,53.3c-0.3,0-0.3-1.1,0-1.4c0.3-0.3,0.8-0.2,0.8,0.3C141.7,52.8,141.3,53.3,140.9,53.3    M148.2,51.2c-0.6,0.6-1.5,0.5-2.5-0.3c-1.2-1-1.5-1.1-2.7-0.6c-0.7,0.3-1.1,0.4-1.3,0.2c-0.3-0.3-0.4-1.5-0.1-1.8   c0.1-0.1,1.4-0.2,3-0.1c2.7,0.1,2.8,0.1,3.4,0.8C148.7,50.2,148.8,50.6,148.2,51.2 M148.1,47c0.2,0,0.3,0.2,0.4,0.4   c0.2,0.6-0.3,1.1-0.7,0.7C147.5,47.7,147.7,47,148.1,47 M149.3,46.5c-0.1-0.1-0.2-0.4-0.1-0.5c0.2-0.4,0.9-0.3,1.1,0.2   C150.5,46.5,149.7,46.8,149.3,46.5 M146.2,47.1c-1.2,0.6-1.6,0.7-3,0.5c-1.9-0.2-2.4-0.4-2.9-1.4c-0.6-1.1-0.5-2,0.2-2.4   c0.5-0.3,0.8-0.3,1.2-0.1c0.6,0.3,0.7,1.5,0.2,2c-1,1,2.2,1.2,4.1,0.3c1.5-0.7,2.4-2.1,3-4.3c0.7-2.7-0.1-5.8-2-7.7   c-1.5-1.5-2.3-1.8-4-1.6c-1.6,0.2-2.1-0.1-2.1-1c0-0.8,0.7-0.8,2.9-0.1c0.9,0.3,2.1,0.8,2.7,1.2c3.3,2,5.1,6.3,4.1,9.9   C150,44,148.1,46.2,146.2,47.1 M150.6,44.5c-0.2-0.2-0.2-0.4,0-0.7c0.4-0.4,1-0.3,1,0.3C151.7,44.5,151,44.8,150.6,44.5 M152,42.6   c-0.5,0.1-0.6-0.1-0.6-0.6s0.1-0.7,0.6-0.6c0.4,0.1,0.6,0.2,0.6,0.6C152.6,42.3,152.4,42.5,152,42.6 M151.7,40.1   c-0.4-0.4,0-1.1,0.6-1c0.4,0.1,0.6,0.3,0.6,0.6C152.9,40.2,152.1,40.5,151.7,40.1"/>
</g>
</svg>